<svg width="22" height="22" viewBox="0 0 22 22" fill="none" xmlns="http://www.w3.org/2000/svg">
<g clip-path="url(#clip0_1112_859)">
<path d="M15.0563 2.40625C12.4248 2.40625 10.285 4.54609 10.285 7.1775C10.285 7.33563 10.3245 7.49031 10.34 7.645C7.08641 7.33391 4.20922 5.76641 2.25501 3.36875C2.16391 3.25359 2.02297 3.19172 1.87516 3.20203C1.72907 3.21234 1.59844 3.29656 1.52626 3.42375C1.11547 4.13016 0.880006 4.94313 0.880006 5.81625C0.880006 6.87328 1.25813 7.84094 1.84251 8.635C1.72907 8.58516 1.60532 8.55766 1.49876 8.4975C1.36297 8.42531 1.19969 8.42875 1.06735 8.50781C0.935006 8.58687 0.854225 8.72953 0.852506 8.8825V8.9375C0.852506 10.5583 1.69126 11.9659 2.92876 12.8288C2.91501 12.827 2.90126 12.8322 2.88751 12.8288C2.73626 12.803 2.58329 12.8563 2.48188 12.9714C2.38047 13.0866 2.34782 13.2464 2.39251 13.3925C2.88407 14.9205 4.13876 16.0875 5.69251 16.5138C4.45501 17.2494 3.01985 17.6825 1.47126 17.6825C1.1361 17.6825 0.814693 17.6653 0.495006 17.6275C0.288756 17.6 0.0910996 17.7203 0.0223496 17.9163C-0.0481191 18.1122 0.0292246 18.3305 0.206256 18.4388C2.19141 19.7123 4.54782 20.46 7.08126 20.46C11.1873 20.46 14.4083 18.7447 16.5688 16.2938C18.7292 13.8428 19.855 10.6597 19.855 7.68625C19.855 7.56078 19.8447 7.43875 19.8413 7.315C20.6473 6.69797 21.3675 5.97438 21.9313 5.12875C22.043 4.96547 22.0309 4.74719 21.902 4.59594C21.7748 4.44469 21.56 4.39828 21.3813 4.4825C21.1544 4.58391 20.8897 4.59422 20.6525 4.675C20.9653 4.25734 21.2334 3.80703 21.395 3.3C21.45 3.12641 21.3898 2.93563 21.2472 2.82219C21.1045 2.71047 20.9052 2.69672 20.7488 2.79125C19.9977 3.23641 19.1658 3.54922 18.2875 3.74C17.435 2.9425 16.3127 2.40625 15.0563 2.40625ZM15.0563 3.28625C16.1786 3.28625 17.1927 3.76578 17.9025 4.52375C18.0091 4.63375 18.1655 4.68016 18.315 4.6475C18.8891 4.53406 19.4339 4.36734 19.965 4.1525C19.6591 4.565 19.2809 4.91734 18.8375 5.18375C18.6364 5.28172 18.5419 5.51375 18.6158 5.72516C18.688 5.93484 18.908 6.05688 19.1263 6.00875C19.5663 5.95547 19.9581 5.77672 20.3775 5.665C20.0011 6.07234 19.5886 6.44016 19.14 6.765C19.018 6.85438 18.9509 6.99875 18.9613 7.15C18.9681 7.32875 18.975 7.50578 18.975 7.68625C18.975 10.4363 17.9197 13.4217 15.9088 15.7025C13.8978 17.9833 10.945 19.58 7.08126 19.58C5.32641 19.58 3.66954 19.1916 2.17251 18.5075C4.02876 18.3648 5.74063 17.7083 7.12251 16.6238C7.26688 16.5086 7.3236 16.3161 7.26516 16.1408C7.20672 15.9655 7.04516 15.8452 6.86126 15.84C5.41063 15.8142 4.19547 14.9703 3.54751 13.7775C3.57157 13.7775 3.59219 13.7775 3.61626 13.7775C4.0511 13.7775 4.48079 13.7225 4.88126 13.6125C5.07376 13.5558 5.2061 13.377 5.19922 13.1759C5.19235 12.9748 5.04969 12.803 4.85376 12.76C3.28797 12.4438 2.11407 11.1684 1.84251 9.58375C2.28594 9.73672 2.73969 9.85703 3.23126 9.8725C3.43235 9.88453 3.61454 9.75906 3.67641 9.56828C3.73829 9.3775 3.66266 9.16781 3.49251 9.06125C2.44751 8.36172 1.76001 7.17063 1.76001 5.81625C1.76001 5.31438 1.89063 4.85375 2.06251 4.41375C4.26251 6.82859 7.3425 8.43219 10.8213 8.6075C10.9588 8.61438 11.0928 8.55766 11.1822 8.45281C11.2716 8.34625 11.3059 8.20531 11.275 8.07125C11.208 7.78594 11.165 7.48344 11.165 7.1775C11.165 5.02219 12.9009 3.28625 15.0563 3.28625Z" fill="white"/>
</g>
<defs>
<clipPath id="clip0_1112_859">
<rect width="22" height="22" fill="white"/>
</clipPath>
</defs>
</svg>
