<svg width="22" height="22" viewBox="0 0 22 22" fill="none" xmlns="http://www.w3.org/2000/svg">
<path d="M2.44444 0C1.09809 0 0 1.09809 0 2.44444V19.5556C0 20.9019 1.09809 22 2.44444 22H19.5556C20.9019 22 22 20.9019 22 19.5556V2.44444C22 1.09809 20.9019 0 19.5556 0H2.44444ZM2.44444 2.44444H19.5556V19.5556H13.9505V14.7096H16.839L17.2687 11.3772H13.9696V9.25738C13.9696 8.29297 14.237 7.64366 15.6168 7.64366H17.3641V4.66927C16.5143 4.58333 15.6597 4.54036 14.8051 4.54514C12.2747 4.54514 10.5369 6.09201 10.5369 8.93273V11.3819H7.67231V14.7144H10.5369V19.5556H2.44444V2.44444Z" fill="white"/>
</svg>
