<svg width="240" height="183" viewBox="0 0 240 183" fill="none" xmlns="http://www.w3.org/2000/svg">
<path d="M8.0857 51.1399L6.5 51.7629V53.4667V128.697V130.389L8.07053 131.018L118.689 175.321L119.615 175.692L120.543 175.323L231.924 131.02L233.5 130.394V128.697V53.4667V51.7587L231.909 51.1377L120.527 7.67106L119.615 7.31515L118.704 7.67319L8.0857 51.1399Z" stroke="#A5B4FC" stroke-width="5"/>
<path d="M151.809 116.853V125.305C151.477 125.705 150.964 126.14 150.271 126.608C149.577 127.067 148.684 127.463 147.59 127.795C146.496 128.127 145.173 128.293 143.62 128.293C142.243 128.293 140.988 128.068 139.855 127.619C138.723 127.16 137.746 126.491 136.926 125.612C136.115 124.733 135.49 123.659 135.051 122.39C134.611 121.11 134.392 119.65 134.392 118.01V116.677C134.392 115.036 134.602 113.576 135.021 112.297C135.451 111.018 136.062 109.938 136.853 109.06C137.644 108.181 138.586 107.512 139.68 107.053C140.773 106.594 141.989 106.364 143.327 106.364C145.183 106.364 146.706 106.667 147.897 107.272C149.089 107.868 149.997 108.698 150.622 109.763C151.257 110.817 151.647 112.028 151.794 113.396H147.531C147.424 112.673 147.219 112.043 146.916 111.506C146.613 110.969 146.179 110.549 145.612 110.246C145.056 109.943 144.333 109.792 143.444 109.792C142.712 109.792 142.058 109.943 141.481 110.246C140.915 110.539 140.437 110.974 140.046 111.55C139.655 112.126 139.357 112.839 139.152 113.688C138.947 114.538 138.845 115.524 138.845 116.647V118.01C138.845 119.123 138.952 120.109 139.167 120.969C139.382 121.818 139.699 122.536 140.119 123.122C140.549 123.698 141.076 124.133 141.701 124.426C142.326 124.719 143.054 124.865 143.884 124.865C144.577 124.865 145.153 124.807 145.612 124.689C146.081 124.572 146.457 124.431 146.74 124.265C147.033 124.089 147.258 123.923 147.414 123.767V119.987H143.4V116.853H151.809ZM167.288 107.373L160.521 128H155.069L164.314 103.117H167.784L167.288 107.373ZM172.911 128L166.126 107.373L165.579 103.117H169.083L178.379 128H172.911ZM172.603 118.737V122.753H159.461V118.737H172.603ZM183.071 96.0078H195.002C197.449 96.0078 199.551 96.374 201.309 97.1064C203.081 97.8389 204.443 98.9229 205.396 100.358C206.348 101.794 206.824 103.559 206.824 105.654C206.824 107.368 206.531 108.84 205.945 110.07C205.374 111.286 204.561 112.304 203.506 113.125C202.466 113.93 201.243 114.575 199.836 115.058L197.749 116.157H187.378L187.334 111.015H195.046C196.204 111.015 197.163 110.81 197.925 110.4C198.687 109.99 199.258 109.418 199.639 108.686C200.034 107.954 200.232 107.104 200.232 106.137C200.232 105.112 200.042 104.226 199.661 103.479C199.28 102.731 198.701 102.16 197.925 101.765C197.148 101.369 196.174 101.171 195.002 101.171H189.663V128H183.071V96.0078ZM200.957 128L193.662 113.74L200.627 113.696L208.01 127.692V128H200.957Z" fill="#A5B4FC"/>
<path d="M49.1919 109.038V114.179H32.4927V109.038H49.1919ZM34.4482 96.0078V128H27.8564V96.0078H34.4482ZM53.894 96.0078V128H47.3242V96.0078H53.894ZM71.3613 107.373L64.5938 128H59.1421L68.3877 103.117H71.8569L71.3613 107.373ZM76.9839 128L70.1992 107.373L69.6523 103.117H73.1558L82.4526 128H76.9839ZM76.6763 118.737V122.753H63.5342V118.737H76.6763ZM103.551 106.672V128H99.1562L90.5869 113.703V128H86.1924V106.672H90.5869L99.1709 120.983V106.672H103.551Z" fill="#A5B4FC"/>
<rect x="111.657" y="110.485" width="4" height="20" transform="rotate(-45 111.657 110.485)" fill="white"/>
<rect x="114.485" y="124.627" width="4" height="20" transform="rotate(-135 114.485 124.627)" fill="white"/>
<path d="M118.957 64.7266V70H104.582V64.7266H118.957ZM107.023 41.5625V70H100.168V41.5625H107.023ZM141.418 64.7266V70H126.262V64.7266H141.418ZM128.703 41.5625V70H121.848V41.5625H128.703ZM139.465 52.8516V57.9492H126.262V52.8516H139.465ZM141.477 41.5625V46.8555H126.262V41.5625H141.477Z" fill="white"/>
</svg>
