<svg width="375" height="596" viewBox="0 0 375 596" fill="none" xmlns="http://www.w3.org/2000/svg">
<path d="M75.0857 216.14L73.5 216.763V218.467V293.697V295.389L75.0705 296.018L185.689 340.321L186.615 340.692L187.543 340.323L298.924 296.02L300.5 295.394V293.697V218.467V216.759L298.909 216.138L187.527 172.671L186.615 172.315L185.704 172.673L75.0857 216.14Z" stroke="#A5B4FC" stroke-width="5"/>
<path d="M218.809 281.853V290.305C218.477 290.705 217.964 291.14 217.271 291.608C216.577 292.067 215.684 292.463 214.59 292.795C213.496 293.127 212.173 293.293 210.62 293.293C209.243 293.293 207.988 293.068 206.855 292.619C205.723 292.16 204.746 291.491 203.926 290.612C203.115 289.733 202.49 288.659 202.051 287.39C201.611 286.11 201.392 284.65 201.392 283.01V281.677C201.392 280.036 201.602 278.576 202.021 277.297C202.451 276.018 203.062 274.938 203.853 274.06C204.644 273.181 205.586 272.512 206.68 272.053C207.773 271.594 208.989 271.364 210.327 271.364C212.183 271.364 213.706 271.667 214.897 272.272C216.089 272.868 216.997 273.698 217.622 274.763C218.257 275.817 218.647 277.028 218.794 278.396H214.531C214.424 277.673 214.219 277.043 213.916 276.506C213.613 275.969 213.179 275.549 212.612 275.246C212.056 274.943 211.333 274.792 210.444 274.792C209.712 274.792 209.058 274.943 208.481 275.246C207.915 275.539 207.437 275.974 207.046 276.55C206.655 277.126 206.357 277.839 206.152 278.688C205.947 279.538 205.845 280.524 205.845 281.647V283.01C205.845 284.123 205.952 285.109 206.167 285.969C206.382 286.818 206.699 287.536 207.119 288.122C207.549 288.698 208.076 289.133 208.701 289.426C209.326 289.719 210.054 289.865 210.884 289.865C211.577 289.865 212.153 289.807 212.612 289.689C213.081 289.572 213.457 289.431 213.74 289.265C214.033 289.089 214.258 288.923 214.414 288.767V284.987H210.4V281.853H218.809ZM234.288 272.373L227.521 293H222.069L231.314 268.117H234.784L234.288 272.373ZM239.911 293L233.126 272.373L232.579 268.117H236.083L245.379 293H239.911ZM239.603 283.737V287.753H226.461V283.737H239.603ZM250.071 261.008H262.002C264.449 261.008 266.551 261.374 268.309 262.106C270.081 262.839 271.443 263.923 272.396 265.358C273.348 266.794 273.824 268.559 273.824 270.654C273.824 272.368 273.531 273.84 272.945 275.07C272.374 276.286 271.561 277.304 270.506 278.125C269.466 278.93 268.243 279.575 266.836 280.058L264.749 281.157H254.378L254.334 276.015H262.046C263.204 276.015 264.163 275.81 264.925 275.4C265.687 274.99 266.258 274.418 266.639 273.686C267.034 272.954 267.232 272.104 267.232 271.137C267.232 270.112 267.042 269.226 266.661 268.479C266.28 267.731 265.701 267.16 264.925 266.765C264.148 266.369 263.174 266.171 262.002 266.171H256.663V293H250.071V261.008ZM267.957 293L260.662 278.74L267.627 278.696L275.01 292.692V293H267.957Z" fill="#A5B4FC"/>
<path d="M116.192 274.038V279.179H99.4927V274.038H116.192ZM101.448 261.008V293H94.8564V261.008H101.448ZM120.894 261.008V293H114.324V261.008H120.894ZM138.361 272.373L131.594 293H126.142L135.388 268.117H138.857L138.361 272.373ZM143.984 293L137.199 272.373L136.652 268.117H140.156L149.453 293H143.984ZM143.676 283.737V287.753H130.534V283.737H143.676ZM170.551 271.672V293H166.156L157.587 278.703V293H153.192V271.672H157.587L166.171 285.983V271.672H170.551Z" fill="#A5B4FC"/>
<rect x="178.657" y="275.485" width="4" height="20" transform="rotate(-45 178.657 275.485)" fill="white"/>
<rect x="181.485" y="289.627" width="4" height="20" transform="rotate(-135 181.485 289.627)" fill="white"/>
<path d="M185.957 229.727V235H171.582V229.727H185.957ZM174.023 206.562V235H167.168V206.562H174.023ZM208.418 229.727V235H193.262V229.727H208.418ZM195.703 206.562V235H188.848V206.562H195.703ZM206.465 217.852V222.949H193.262V217.852H206.465ZM208.477 206.562V211.855H193.262V206.562H208.477Z" fill="white"/>
</svg>
