<svg width="545" height="403" viewBox="0 0 545 403" fill="none" xmlns="http://www.w3.org/2000/svg">
<path d="M4.08936 107.938L2.5 108.56V110.267V290.728V292.423L4.07423 293.05L270.655 399.322L271.578 399.69L272.501 399.324L540.92 293.053L542.5 292.427V290.728V110.267V108.556L540.905 107.936L272.486 3.66964L271.578 3.3168L270.67 3.67175L4.08936 107.938Z" fill="#A5B4FC" stroke="#627394" stroke-width="5"/>
<path d="M234.56 67.376L233.568 62.992L244.864 51.6H250.72L234.56 67.376ZM230.912 74V51.6H235.712V74H230.912ZM245.44 74L237.056 62.896L240.384 60.048L251.168 74H245.44ZM260.523 74.32C258.688 74.32 257.077 73.9467 255.691 73.2C254.325 72.4533 253.259 71.4293 252.491 70.128C251.744 68.8267 251.371 67.344 251.371 65.68C251.371 64.3573 251.584 63.152 252.011 62.064C252.437 60.9547 253.035 60.0053 253.803 59.216C254.571 58.4267 255.477 57.8187 256.523 57.392C257.589 56.944 258.752 56.72 260.011 56.72C261.163 56.72 262.219 56.9333 263.179 57.36C264.16 57.7653 265.003 58.352 265.707 59.12C266.432 59.8667 266.987 60.752 267.371 61.776C267.755 62.8 267.936 63.92 267.915 65.136L267.883 66.544H254.283L253.547 63.728H264.139L263.595 64.304V63.632C263.552 63.0347 263.36 62.512 263.019 62.064C262.699 61.616 262.283 61.264 261.771 61.008C261.259 60.7307 260.693 60.592 260.075 60.592C259.115 60.592 258.304 60.784 257.643 61.168C257.003 61.5307 256.512 62.064 256.171 62.768C255.851 63.4507 255.691 64.304 255.691 65.328C255.691 66.3307 255.904 67.216 256.331 67.984C256.757 68.7307 257.365 69.3067 258.155 69.712C258.965 70.1173 259.915 70.32 261.003 70.32C261.749 70.32 262.432 70.2027 263.051 69.968C263.669 69.7333 264.341 69.328 265.067 68.752L267.211 71.792C266.613 72.3253 265.941 72.784 265.195 73.168C264.448 73.552 263.68 73.84 262.891 74.032C262.101 74.224 261.312 74.32 260.523 74.32ZM275.56 68.912L274.312 65.136L282.248 57.072H288.232L275.56 68.912ZM271.272 74V50.32H275.816V74H271.272ZM282.728 74L276.648 66.416L279.88 63.824L288.2 74H282.728ZM290.71 74V57.072H295.094L295.254 62.512L294.486 61.36C294.763 60.5067 295.179 59.728 295.734 59.024C296.31 58.32 296.982 57.7653 297.75 57.36C298.539 56.9333 299.36 56.72 300.214 56.72C300.598 56.72 300.95 56.752 301.27 56.816C301.611 56.8587 301.899 56.9333 302.134 57.04L300.918 62C300.683 61.8933 300.374 61.7973 299.99 61.712C299.627 61.6053 299.254 61.552 298.87 61.552C298.379 61.552 297.91 61.648 297.462 61.84C297.035 62.0107 296.651 62.2667 296.31 62.608C295.99 62.928 295.734 63.312 295.542 63.76C295.371 64.208 295.286 64.7093 295.286 65.264V74H290.71ZM313.398 74V63.408C313.398 62.512 313.121 61.8293 312.566 61.36C312.033 60.8693 311.307 60.624 310.39 60.624C309.515 60.624 308.737 60.7947 308.054 61.136C307.371 61.4773 306.731 62.0107 306.134 62.736L303.35 60.048C304.374 58.9813 305.515 58.16 306.774 57.584C308.054 57.008 309.441 56.72 310.934 56.72C312.299 56.72 313.483 56.9333 314.486 57.36C315.51 57.7867 316.299 58.4267 316.854 59.28C317.409 60.1333 317.686 61.2107 317.686 62.512V74H313.398ZM308.758 74.32C307.691 74.32 306.721 74.1067 305.846 73.68C304.993 73.2533 304.31 72.6667 303.798 71.92C303.307 71.152 303.062 70.256 303.062 69.232C303.062 68.3573 303.222 67.5893 303.542 66.928C303.862 66.2453 304.331 65.6907 304.95 65.264C305.59 64.816 306.379 64.4747 307.318 64.24C308.278 64.0053 309.387 63.888 310.646 63.888H315.638L315.35 66.928H310.582C310.07 66.928 309.611 66.9707 309.206 67.056C308.822 67.1413 308.491 67.28 308.214 67.472C307.958 67.664 307.755 67.888 307.606 68.144C307.478 68.4 307.414 68.6987 307.414 69.04C307.414 69.4027 307.51 69.7227 307.702 70C307.894 70.2773 308.15 70.4907 308.47 70.64C308.811 70.7893 309.195 70.864 309.622 70.864C310.241 70.864 310.827 70.7573 311.382 70.544C311.958 70.3307 312.47 70.032 312.918 69.648C313.366 69.264 313.718 68.8267 313.974 68.336L314.838 70.608C314.39 71.3333 313.846 71.9733 313.206 72.528C312.566 73.0827 311.873 73.52 311.126 73.84C310.379 74.16 309.59 74.32 308.758 74.32Z" fill="white"/>
<path d="M430.264 254V231.6H439.352C440.696 231.6 441.837 231.824 442.776 232.272C443.736 232.72 444.461 233.36 444.952 234.192C445.443 235.024 445.688 236.005 445.688 237.136C445.688 238.416 445.304 239.515 444.536 240.432C443.789 241.328 442.765 241.925 441.464 242.224L441.368 241.648C442.52 241.819 443.501 242.181 444.312 242.736C445.144 243.269 445.773 243.952 446.2 244.784C446.648 245.595 446.872 246.523 446.872 247.568C446.872 248.549 446.712 249.445 446.392 250.256C446.093 251.045 445.624 251.717 444.984 252.272C444.365 252.827 443.597 253.253 442.68 253.552C441.763 253.851 440.696 254 439.48 254H430.264ZM432.792 251.568H439.384C441.027 251.568 442.253 251.205 443.064 250.48C443.875 249.755 444.28 248.784 444.28 247.568C444.28 246.757 444.077 246.064 443.672 245.488C443.288 244.912 442.723 244.464 441.976 244.144C441.229 243.824 440.344 243.664 439.32 243.664H432.792V251.568ZM432.792 241.2H439.16C439.907 241.2 440.579 241.051 441.176 240.752C441.795 240.432 442.275 240.005 442.616 239.472C442.979 238.917 443.16 238.288 443.16 237.584C443.16 236.517 442.787 235.664 442.04 235.024C441.293 234.363 440.259 234.032 438.936 234.032H432.792V241.2ZM458.358 254.32C456.672 254.32 455.179 253.957 453.878 253.232C452.576 252.485 451.552 251.461 450.806 250.16C450.08 248.859 449.718 247.376 449.718 245.712C449.718 244.411 449.92 243.227 450.326 242.16C450.752 241.072 451.328 240.144 452.054 239.376C452.8 238.587 453.686 237.979 454.71 237.552C455.734 237.125 456.854 236.912 458.07 236.912C459.136 236.912 460.128 237.104 461.046 237.488C461.984 237.872 462.795 238.427 463.478 239.152C464.16 239.856 464.683 240.699 465.046 241.68C465.408 242.64 465.568 243.707 465.526 244.88L465.494 246.096H451.478L450.966 244.112H463.478L463.03 244.656L463.062 243.856C463.019 242.939 462.763 242.128 462.294 241.424C461.824 240.72 461.216 240.165 460.47 239.76C459.744 239.355 458.944 239.152 458.07 239.152C456.832 239.152 455.766 239.419 454.87 239.952C453.974 240.464 453.291 241.2 452.822 242.16C452.374 243.099 452.139 244.229 452.118 245.552C452.139 246.875 452.416 248.027 452.95 249.008C453.483 249.968 454.23 250.725 455.19 251.28C456.171 251.813 457.302 252.08 458.582 252.08C459.499 252.08 460.352 251.931 461.142 251.632C461.931 251.312 462.731 250.789 463.542 250.064L464.758 251.792C464.246 252.304 463.638 252.752 462.934 253.136C462.251 253.499 461.515 253.787 460.726 254C459.936 254.213 459.147 254.32 458.358 254.32ZM476.67 254.32C474.985 254.32 473.491 253.957 472.19 253.232C470.889 252.485 469.865 251.461 469.118 250.16C468.393 248.859 468.03 247.376 468.03 245.712C468.03 244.411 468.233 243.227 468.638 242.16C469.065 241.072 469.641 240.144 470.366 239.376C471.113 238.587 471.998 237.979 473.022 237.552C474.046 237.125 475.166 236.912 476.382 236.912C477.449 236.912 478.441 237.104 479.358 237.488C480.297 237.872 481.107 238.427 481.79 239.152C482.473 239.856 482.995 240.699 483.358 241.68C483.721 242.64 483.881 243.707 483.838 244.88L483.806 246.096H469.79L469.278 244.112H481.79L481.342 244.656L481.374 243.856C481.331 242.939 481.075 242.128 480.606 241.424C480.137 240.72 479.529 240.165 478.782 239.76C478.057 239.355 477.257 239.152 476.382 239.152C475.145 239.152 474.078 239.419 473.182 239.952C472.286 240.464 471.603 241.2 471.134 242.16C470.686 243.099 470.451 244.229 470.43 245.552C470.451 246.875 470.729 248.027 471.262 249.008C471.795 249.968 472.542 250.725 473.502 251.28C474.483 251.813 475.614 252.08 476.894 252.08C477.811 252.08 478.665 251.931 479.454 251.632C480.243 251.312 481.043 250.789 481.854 250.064L483.07 251.792C482.558 252.304 481.95 252.752 481.246 253.136C480.563 253.499 479.827 253.787 479.038 254C478.249 254.213 477.459 254.32 476.67 254.32ZM495.815 254.32C495.047 254.32 494.289 254.192 493.543 253.936C492.796 253.68 492.113 253.339 491.495 252.912C490.897 252.464 490.385 251.963 489.959 251.408C489.553 250.853 489.287 250.277 489.159 249.68L489.766 249.424V253.936H487.335V230.32H489.766V241.648L489.351 241.488C489.479 240.869 489.735 240.293 490.119 239.76C490.524 239.205 491.015 238.715 491.591 238.288C492.188 237.861 492.839 237.531 493.543 237.296C494.247 237.04 494.972 236.912 495.719 236.912C497.255 236.912 498.609 237.285 499.783 238.032C500.977 238.779 501.916 239.803 502.599 241.104C503.303 242.405 503.655 243.899 503.655 245.584C503.655 247.248 503.303 248.741 502.599 250.064C501.916 251.387 500.977 252.432 499.783 253.2C498.609 253.947 497.287 254.32 495.815 254.32ZM495.431 252.08C496.561 252.08 497.564 251.803 498.439 251.248C499.335 250.672 500.039 249.893 500.551 248.912C501.063 247.931 501.319 246.821 501.319 245.584C501.319 244.347 501.063 243.248 500.551 242.288C500.06 241.307 499.367 240.539 498.471 239.984C497.596 239.429 496.583 239.152 495.431 239.152C494.321 239.152 493.329 239.429 492.455 239.984C491.601 240.539 490.919 241.307 490.407 242.288C489.916 243.248 489.671 244.347 489.671 245.584C489.671 246.843 489.916 247.963 490.407 248.944C490.919 249.904 491.601 250.672 492.455 251.248C493.329 251.803 494.321 252.08 495.431 252.08ZM509.401 261.36L512.665 253.584L512.76 255.504L504.569 237.2H507.417L513.177 250.448C513.305 250.704 513.422 251.003 513.529 251.344C513.657 251.664 513.763 251.973 513.849 252.272L513.177 252.464C513.326 252.08 513.465 251.707 513.593 251.344C513.742 250.96 513.881 250.587 514.009 250.224L518.937 237.2H521.785L514.841 254.128L512.025 261.36H509.401Z" fill="white"/>
<path d="M312.736 140L321.376 117.6H324.096L332.704 140H329.984L324.512 125.6C324.448 125.451 324.331 125.12 324.16 124.608C323.989 124.075 323.787 123.477 323.552 122.816C323.317 122.155 323.093 121.525 322.88 120.928C322.667 120.309 322.496 119.84 322.368 119.52H322.976C322.848 119.883 322.688 120.352 322.496 120.928C322.304 121.504 322.091 122.101 321.856 122.72C321.643 123.339 321.44 123.915 321.248 124.448C321.056 124.981 320.907 125.408 320.8 125.728L315.36 140H312.736ZM316.384 133.824L317.312 131.36H327.904L328.96 133.824H316.384ZM335.71 140V123.2H338.141V126.784L337.661 127.072C337.896 126.325 338.323 125.643 338.942 125.024C339.56 124.405 340.307 123.904 341.182 123.52C342.056 123.115 342.963 122.912 343.902 122.912C345.16 122.912 346.216 123.157 347.07 123.648C347.944 124.117 348.606 124.853 349.054 125.856C349.502 126.859 349.726 128.128 349.726 129.664V140H347.294V129.824C347.294 128.736 347.134 127.84 346.814 127.136C346.515 126.432 346.056 125.92 345.438 125.6C344.84 125.28 344.083 125.131 343.166 125.152C342.44 125.152 341.768 125.269 341.15 125.504C340.552 125.739 340.03 126.059 339.582 126.464C339.134 126.848 338.782 127.285 338.526 127.776C338.27 128.245 338.141 128.715 338.141 129.184V140H336.958C336.766 140 336.563 140 336.35 140C336.136 140 335.923 140 335.71 140ZM354.178 140V123.2H356.61V126.784L356.13 127.072C356.365 126.325 356.792 125.643 357.41 125.024C358.029 124.405 358.776 123.904 359.65 123.52C360.525 123.115 361.432 122.912 362.37 122.912C363.629 122.912 364.685 123.157 365.538 123.648C366.413 124.117 367.074 124.853 367.522 125.856C367.97 126.859 368.194 128.128 368.194 129.664V140H365.762V129.824C365.762 128.736 365.602 127.84 365.282 127.136C364.984 126.432 364.525 125.92 363.906 125.6C363.309 125.28 362.552 125.131 361.634 125.152C360.909 125.152 360.237 125.269 359.618 125.504C359.021 125.739 358.498 126.059 358.05 126.464C357.602 126.848 357.25 127.285 356.994 127.776C356.738 128.245 356.61 128.715 356.61 129.184V140H355.426C355.234 140 355.032 140 354.818 140C354.605 140 354.392 140 354.178 140ZM373.191 140V123.2H375.623V140H373.191ZM374.375 119.264C373.82 119.264 373.383 119.115 373.063 118.816C372.764 118.496 372.615 118.08 372.615 117.568C372.615 117.056 372.764 116.651 373.063 116.352C373.383 116.032 373.82 115.872 374.375 115.872C374.93 115.872 375.356 116.021 375.655 116.32C375.975 116.619 376.135 117.035 376.135 117.568C376.135 118.059 375.986 118.464 375.687 118.784C375.388 119.104 374.951 119.264 374.375 119.264ZM388.295 140.32C386.61 140.32 385.116 139.957 383.815 139.232C382.514 138.485 381.49 137.461 380.743 136.16C380.018 134.859 379.655 133.376 379.655 131.712C379.655 130.411 379.858 129.227 380.263 128.16C380.69 127.072 381.266 126.144 381.991 125.376C382.738 124.587 383.623 123.979 384.647 123.552C385.671 123.125 386.791 122.912 388.007 122.912C389.074 122.912 390.066 123.104 390.983 123.488C391.922 123.872 392.732 124.427 393.415 125.152C394.098 125.856 394.62 126.699 394.983 127.68C395.346 128.64 395.506 129.707 395.463 130.88L395.431 132.096H381.415L380.903 130.112H393.415L392.967 130.656L392.999 129.856C392.956 128.939 392.7 128.128 392.231 127.424C391.762 126.72 391.154 126.165 390.407 125.76C389.682 125.355 388.882 125.152 388.007 125.152C386.77 125.152 385.703 125.419 384.807 125.952C383.911 126.464 383.228 127.2 382.759 128.16C382.311 129.099 382.076 130.229 382.055 131.552C382.076 132.875 382.354 134.027 382.887 135.008C383.42 135.968 384.167 136.725 385.127 137.28C386.108 137.813 387.239 138.08 388.519 138.08C389.436 138.08 390.29 137.931 391.079 137.632C391.868 137.312 392.668 136.789 393.479 136.064L394.695 137.792C394.183 138.304 393.575 138.752 392.871 139.136C392.188 139.499 391.452 139.787 390.663 140C389.874 140.213 389.084 140.32 388.295 140.32ZM409.304 140.288C408.728 140.288 408.28 140.128 407.96 139.808C407.662 139.467 407.512 138.987 407.512 138.368C407.512 137.792 407.672 137.333 407.992 136.992C408.334 136.629 408.771 136.448 409.304 136.448C409.88 136.448 410.318 136.619 410.616 136.96C410.936 137.28 411.096 137.749 411.096 138.368C411.096 138.923 410.926 139.381 410.584 139.744C410.264 140.107 409.838 140.288 409.304 140.288ZM413.674 140L422.314 117.6H425.034L433.642 140H430.922L425.45 125.6C425.386 125.451 425.268 125.12 425.098 124.608C424.927 124.075 424.724 123.477 424.49 122.816C424.255 122.155 424.031 121.525 423.818 120.928C423.604 120.309 423.434 119.84 423.306 119.52H423.914C423.786 119.883 423.626 120.352 423.434 120.928C423.242 121.504 423.028 122.101 422.794 122.72C422.58 123.339 422.378 123.915 422.186 124.448C421.994 124.981 421.844 125.408 421.738 125.728L416.298 140H413.674ZM417.322 133.824L418.25 131.36H428.842L429.898 133.824H417.322ZM443.094 140.32C441.537 140.32 440.15 139.947 438.934 139.2C437.739 138.432 436.79 137.397 436.086 136.096C435.382 134.795 435.03 133.312 435.03 131.648C435.03 129.963 435.382 128.469 436.086 127.168C436.79 125.845 437.739 124.811 438.934 124.064C440.15 123.296 441.505 122.912 442.998 122.912C443.83 122.912 444.641 123.051 445.43 123.328C446.219 123.605 446.923 123.989 447.542 124.48C448.182 124.949 448.694 125.483 449.078 126.08C449.462 126.677 449.675 127.296 449.718 127.936H449.046V116.32H451.478V140H449.046V135.488L449.558 135.456C449.494 136.096 449.27 136.704 448.886 137.28C448.502 137.856 448.011 138.379 447.414 138.848C446.838 139.296 446.177 139.659 445.43 139.936C444.683 140.192 443.905 140.32 443.094 140.32ZM443.382 138.176C444.491 138.176 445.473 137.899 446.326 137.344C447.201 136.768 447.883 135.989 448.374 135.008C448.865 134.027 449.11 132.896 449.11 131.616C449.11 130.336 448.865 129.205 448.374 128.224C447.883 127.243 447.201 126.464 446.326 125.888C445.473 125.312 444.481 125.024 443.35 125.024C442.219 125.024 441.206 125.312 440.31 125.888C439.435 126.464 438.742 127.253 438.23 128.256C437.739 129.237 437.494 130.368 437.494 131.648C437.494 132.885 437.739 134.005 438.23 135.008C438.742 135.989 439.435 136.768 440.31 137.344C441.206 137.899 442.23 138.176 443.382 138.176ZM466.615 140V128.8C466.615 127.712 466.231 126.837 465.463 126.176C464.695 125.515 463.681 125.184 462.423 125.184C461.377 125.184 460.428 125.397 459.575 125.824C458.721 126.251 457.964 126.891 457.303 127.744L455.703 126.144C456.663 125.056 457.708 124.245 458.839 123.712C459.991 123.179 461.239 122.912 462.583 122.912C463.863 122.912 464.972 123.125 465.911 123.552C466.849 123.979 467.564 124.597 468.055 125.408C468.567 126.219 468.823 127.2 468.823 128.352V140H466.615ZM460.855 140.32C459.767 140.32 458.796 140.107 457.943 139.68C457.089 139.253 456.407 138.667 455.895 137.92C455.404 137.152 455.159 136.256 455.159 135.232C455.159 134.4 455.308 133.664 455.607 133.024C455.927 132.384 456.385 131.851 456.983 131.424C457.58 130.997 458.337 130.677 459.255 130.464C460.172 130.229 461.217 130.112 462.391 130.112H467.703L467.511 132.128H462.071C461.324 132.128 460.663 132.192 460.087 132.32C459.532 132.448 459.052 132.651 458.647 132.928C458.263 133.184 457.964 133.504 457.751 133.888C457.559 134.251 457.463 134.688 457.463 135.2C457.463 135.797 457.612 136.331 457.911 136.8C458.231 137.248 458.647 137.6 459.159 137.856C459.692 138.091 460.289 138.208 460.951 138.208C461.825 138.208 462.647 138.059 463.415 137.76C464.183 137.44 464.865 137.013 465.463 136.48C466.081 135.925 466.572 135.307 466.935 134.624L467.607 136.16C467.137 136.971 466.551 137.696 465.847 138.336C465.143 138.955 464.364 139.445 463.511 139.808C462.679 140.149 461.793 140.32 460.855 140.32ZM483.74 140V128.8C483.74 127.712 483.356 126.837 482.588 126.176C481.82 125.515 480.806 125.184 479.548 125.184C478.502 125.184 477.553 125.397 476.7 125.824C475.846 126.251 475.089 126.891 474.428 127.744L472.828 126.144C473.788 125.056 474.833 124.245 475.964 123.712C477.116 123.179 478.364 122.912 479.708 122.912C480.988 122.912 482.097 123.125 483.036 123.552C483.974 123.979 484.689 124.597 485.18 125.408C485.692 126.219 485.948 127.2 485.948 128.352V140H483.74ZM477.98 140.32C476.892 140.32 475.921 140.107 475.068 139.68C474.214 139.253 473.532 138.667 473.02 137.92C472.529 137.152 472.284 136.256 472.284 135.232C472.284 134.4 472.433 133.664 472.732 133.024C473.052 132.384 473.51 131.851 474.108 131.424C474.705 130.997 475.462 130.677 476.38 130.464C477.297 130.229 478.342 130.112 479.516 130.112H484.828L484.636 132.128H479.196C478.449 132.128 477.788 132.192 477.212 132.32C476.657 132.448 476.177 132.651 475.772 132.928C475.388 133.184 475.089 133.504 474.876 133.888C474.684 134.251 474.588 134.688 474.588 135.2C474.588 135.797 474.737 136.331 475.036 136.8C475.356 137.248 475.772 137.6 476.284 137.856C476.817 138.091 477.414 138.208 478.076 138.208C478.95 138.208 479.772 138.059 480.54 137.76C481.308 137.44 481.99 137.013 482.588 136.48C483.206 135.925 483.697 135.307 484.06 134.624L484.732 136.16C484.262 136.971 483.676 137.696 482.972 138.336C482.268 138.955 481.489 139.445 480.636 139.808C479.804 140.149 478.918 140.32 477.98 140.32Z" fill="white"/>
<path d="M36.584 175L29.736 152.6H32.424L36.808 167.352C37.0213 167.949 37.192 168.557 37.32 169.176C37.448 169.773 37.576 170.36 37.704 170.936C37.832 171.491 37.96 172.013 38.088 172.504H37.352C37.6933 171.395 37.9707 170.52 38.184 169.88C38.3973 169.24 38.568 168.717 38.696 168.312C38.8453 167.907 38.984 167.555 39.112 167.256L43.08 157.112H45.288L49.16 167.256C49.3307 167.661 49.4907 168.099 49.64 168.568C49.8107 169.016 49.9813 169.539 50.152 170.136C50.344 170.712 50.5893 171.437 50.888 172.312L50.216 172.472C50.344 171.853 50.44 171.373 50.504 171.032C50.5893 170.669 50.6533 170.381 50.696 170.168C50.76 169.955 50.8133 169.741 50.856 169.528C50.8987 169.315 50.9627 169.037 51.048 168.696C51.1547 168.355 51.304 167.885 51.496 167.288L55.848 152.6H58.568L51.72 175H49.864L43.848 160.312L44.264 160.408L38.408 175H36.584ZM71.396 175V163.8C71.396 162.712 71.012 161.837 70.244 161.176C69.476 160.515 68.4627 160.184 67.204 160.184C66.1587 160.184 65.2093 160.397 64.356 160.824C63.5027 161.251 62.7453 161.891 62.084 162.744L60.484 161.144C61.444 160.056 62.4893 159.245 63.62 158.712C64.772 158.179 66.02 157.912 67.364 157.912C68.644 157.912 69.7533 158.125 70.692 158.552C71.6307 158.979 72.3453 159.597 72.836 160.408C73.348 161.219 73.604 162.2 73.604 163.352V175H71.396ZM65.636 175.32C64.548 175.32 63.5773 175.107 62.724 174.68C61.8707 174.253 61.188 173.667 60.676 172.92C60.1853 172.152 59.94 171.256 59.94 170.232C59.94 169.4 60.0893 168.664 60.388 168.024C60.708 167.384 61.1667 166.851 61.764 166.424C62.3613 165.997 63.1187 165.677 64.036 165.464C64.9533 165.229 65.9987 165.112 67.172 165.112H72.484L72.292 167.128H66.852C66.1053 167.128 65.444 167.192 64.868 167.32C64.3133 167.448 63.8333 167.651 63.428 167.928C63.044 168.184 62.7453 168.504 62.532 168.888C62.34 169.251 62.244 169.688 62.244 170.2C62.244 170.797 62.3933 171.331 62.692 171.8C63.012 172.248 63.428 172.6 63.94 172.856C64.4733 173.091 65.0707 173.208 65.732 173.208C66.6067 173.208 67.428 173.059 68.196 172.76C68.964 172.44 69.6467 172.013 70.244 171.48C70.8627 170.925 71.3533 170.307 71.716 169.624L72.388 171.16C71.9187 171.971 71.332 172.696 70.628 173.336C69.924 173.955 69.1453 174.445 68.292 174.808C67.46 175.149 66.5747 175.32 65.636 175.32ZM78.185 175V151.32H80.617V175H78.185ZM85.7475 175V151.32H88.1795V175H85.7475ZM103.334 175V163.8C103.334 162.712 102.95 161.837 102.182 161.176C101.414 160.515 100.4 160.184 99.1415 160.184C98.0962 160.184 97.1468 160.397 96.2935 160.824C95.4402 161.251 94.6828 161.891 94.0215 162.744L92.4215 161.144C93.3815 160.056 94.4268 159.245 95.5575 158.712C96.7095 158.179 97.9575 157.912 99.3015 157.912C100.582 157.912 101.691 158.125 102.63 158.552C103.568 158.979 104.283 159.597 104.774 160.408C105.286 161.219 105.542 162.2 105.542 163.352V175H103.334ZM97.5735 175.32C96.4855 175.32 95.5148 175.107 94.6615 174.68C93.8082 174.253 93.1255 173.667 92.6135 172.92C92.1228 172.152 91.8775 171.256 91.8775 170.232C91.8775 169.4 92.0268 168.664 92.3255 168.024C92.6455 167.384 93.1042 166.851 93.7015 166.424C94.2988 165.997 95.0562 165.677 95.9735 165.464C96.8908 165.229 97.9362 165.112 99.1095 165.112H104.422L104.23 167.128H98.7895C98.0428 167.128 97.3815 167.192 96.8055 167.32C96.2508 167.448 95.7708 167.651 95.3655 167.928C94.9815 168.184 94.6828 168.504 94.4695 168.888C94.2775 169.251 94.1815 169.688 94.1815 170.2C94.1815 170.797 94.3308 171.331 94.6295 171.8C94.9495 172.248 95.3655 172.6 95.8775 172.856C96.4108 173.091 97.0082 173.208 97.6695 173.208C98.5442 173.208 99.3655 173.059 100.134 172.76C100.902 172.44 101.584 172.013 102.182 171.48C102.8 170.925 103.291 170.307 103.654 169.624L104.326 171.16C103.856 171.971 103.27 172.696 102.566 173.336C101.862 173.955 101.083 174.445 100.23 174.808C99.3975 175.149 98.5122 175.32 97.5735 175.32ZM117.131 175.32C115.531 175.32 114.101 174.936 112.843 174.168C111.605 173.4 110.624 172.365 109.899 171.064C109.195 169.741 108.843 168.248 108.843 166.584C108.843 164.941 109.195 163.469 109.899 162.168C110.624 160.845 111.605 159.811 112.843 159.064C114.101 158.296 115.531 157.912 117.131 157.912C118.581 157.912 119.893 158.2 121.067 158.776C122.24 159.331 123.168 160.109 123.851 161.112L122.443 162.776C122.059 162.264 121.589 161.816 121.035 161.432C120.48 161.027 119.883 160.717 119.243 160.504C118.603 160.269 117.963 160.152 117.323 160.152C116.149 160.152 115.093 160.429 114.155 160.984C113.237 161.539 112.512 162.307 111.979 163.288C111.445 164.248 111.179 165.347 111.179 166.584C111.179 167.821 111.445 168.931 111.979 169.912C112.533 170.893 113.28 171.672 114.219 172.248C115.157 172.824 116.203 173.112 117.355 173.112C117.995 173.112 118.613 173.016 119.211 172.824C119.829 172.611 120.405 172.312 120.939 171.928C121.472 171.544 121.973 171.075 122.443 170.52L123.819 172.216C123.115 173.133 122.155 173.88 120.939 174.456C119.744 175.032 118.475 175.32 117.131 175.32ZM134.514 175.32C132.828 175.32 131.335 174.957 130.034 174.232C128.732 173.485 127.708 172.461 126.962 171.16C126.236 169.859 125.874 168.376 125.874 166.712C125.874 165.411 126.076 164.227 126.482 163.16C126.908 162.072 127.484 161.144 128.21 160.376C128.956 159.587 129.842 158.979 130.866 158.552C131.89 158.125 133.01 157.912 134.226 157.912C135.292 157.912 136.284 158.104 137.202 158.488C138.14 158.872 138.951 159.427 139.634 160.152C140.316 160.856 140.839 161.699 141.202 162.68C141.564 163.64 141.724 164.707 141.682 165.88L141.65 167.096H127.634L127.122 165.112H139.634L139.186 165.656L139.218 164.856C139.175 163.939 138.919 163.128 138.45 162.424C137.98 161.72 137.372 161.165 136.626 160.76C135.9 160.355 135.1 160.152 134.226 160.152C132.988 160.152 131.922 160.419 131.026 160.952C130.13 161.464 129.447 162.2 128.978 163.16C128.53 164.099 128.295 165.229 128.274 166.552C128.295 167.875 128.572 169.027 129.106 170.008C129.639 170.968 130.386 171.725 131.346 172.28C132.327 172.813 133.458 173.08 134.738 173.08C135.655 173.08 136.508 172.931 137.298 172.632C138.087 172.312 138.887 171.789 139.698 171.064L140.914 172.792C140.402 173.304 139.794 173.752 139.09 174.136C138.407 174.499 137.671 174.787 136.882 175C136.092 175.213 135.303 175.32 134.514 175.32ZM164.291 175.32C162.712 175.32 161.262 175.043 159.939 174.488C158.638 173.933 157.496 173.144 156.515 172.12C155.555 171.096 154.808 169.88 154.275 168.472C153.763 167.064 153.507 165.517 153.507 163.832C153.507 162.211 153.784 160.707 154.339 159.32C154.894 157.912 155.662 156.696 156.643 155.672C157.646 154.627 158.808 153.816 160.131 153.24C161.454 152.664 162.904 152.376 164.483 152.376C165.571 152.376 166.627 152.536 167.651 152.856C168.675 153.176 169.603 153.624 170.435 154.2C171.288 154.776 172.003 155.437 172.579 156.184L170.851 157.944C169.934 156.963 168.931 156.216 167.843 155.704C166.776 155.171 165.656 154.904 164.483 154.904C163.288 154.904 162.179 155.128 161.155 155.576C160.131 156.024 159.235 156.643 158.467 157.432C157.72 158.221 157.134 159.171 156.707 160.28C156.28 161.368 156.067 162.552 156.067 163.832C156.067 165.176 156.28 166.403 156.707 167.512C157.134 168.6 157.72 169.539 158.467 170.328C159.235 171.096 160.142 171.693 161.187 172.12C162.232 172.547 163.395 172.76 164.675 172.76C165.464 172.76 166.232 172.664 166.979 172.472C167.726 172.259 168.419 171.96 169.059 171.576C169.699 171.192 170.286 170.744 170.819 170.232L172.131 172.312C171.598 172.888 170.915 173.411 170.083 173.88C169.251 174.328 168.334 174.68 167.331 174.936C166.35 175.192 165.336 175.32 164.291 175.32ZM176.248 175V151.32H178.68V175H176.248ZM190.858 175.32C189.172 175.32 187.679 174.957 186.378 174.232C185.076 173.485 184.052 172.461 183.306 171.16C182.58 169.859 182.218 168.376 182.218 166.712C182.218 165.411 182.42 164.227 182.826 163.16C183.252 162.072 183.828 161.144 184.554 160.376C185.3 159.587 186.186 158.979 187.21 158.552C188.234 158.125 189.354 157.912 190.57 157.912C191.636 157.912 192.628 158.104 193.546 158.488C194.484 158.872 195.295 159.427 195.978 160.152C196.66 160.856 197.183 161.699 197.546 162.68C197.908 163.64 198.068 164.707 198.026 165.88L197.994 167.096H183.978L183.466 165.112H195.978L195.53 165.656L195.562 164.856C195.519 163.939 195.263 163.128 194.794 162.424C194.324 161.72 193.716 161.165 192.97 160.76C192.244 160.355 191.444 160.152 190.57 160.152C189.332 160.152 188.266 160.419 187.37 160.952C186.474 161.464 185.791 162.2 185.322 163.16C184.874 164.099 184.639 165.229 184.618 166.552C184.639 167.875 184.916 169.027 185.45 170.008C185.983 170.968 186.73 171.725 187.69 172.28C188.671 172.813 189.802 173.08 191.082 173.08C191.999 173.08 192.852 172.931 193.642 172.632C194.431 172.312 195.231 171.789 196.042 171.064L197.258 172.792C196.746 173.304 196.138 173.752 195.434 174.136C194.751 174.499 194.015 174.787 193.226 175C192.436 175.213 191.647 175.32 190.858 175.32ZM212.146 175V163.8C212.146 162.712 211.762 161.837 210.994 161.176C210.226 160.515 209.213 160.184 207.954 160.184C206.909 160.184 205.959 160.397 205.106 160.824C204.253 161.251 203.495 161.891 202.834 162.744L201.234 161.144C202.194 160.056 203.239 159.245 204.37 158.712C205.522 158.179 206.77 157.912 208.114 157.912C209.394 157.912 210.503 158.125 211.442 158.552C212.381 158.979 213.095 159.597 213.586 160.408C214.098 161.219 214.354 162.2 214.354 163.352V175H212.146ZM206.386 175.32C205.298 175.32 204.327 175.107 203.474 174.68C202.621 174.253 201.938 173.667 201.426 172.92C200.935 172.152 200.69 171.256 200.69 170.232C200.69 169.4 200.839 168.664 201.138 168.024C201.458 167.384 201.917 166.851 202.514 166.424C203.111 165.997 203.869 165.677 204.786 165.464C205.703 165.229 206.749 165.112 207.922 165.112H213.234L213.042 167.128H207.602C206.855 167.128 206.194 167.192 205.618 167.32C205.063 167.448 204.583 167.651 204.178 167.928C203.794 168.184 203.495 168.504 203.282 168.888C203.09 169.251 202.994 169.688 202.994 170.2C202.994 170.797 203.143 171.331 203.442 171.8C203.762 172.248 204.178 172.6 204.69 172.856C205.223 173.091 205.821 173.208 206.482 173.208C207.357 173.208 208.178 173.059 208.946 172.76C209.714 172.44 210.397 172.013 210.994 171.48C211.613 170.925 212.103 170.307 212.466 169.624L213.138 171.16C212.669 171.971 212.082 172.696 211.378 173.336C210.674 173.955 209.895 174.445 209.042 174.808C208.21 175.149 207.325 175.32 206.386 175.32ZM223.616 175L216.608 158.2H219.264L224.8 171.928L224.256 172.12L230.048 158.2H232.576L225.344 175H223.616ZM242.67 175.32C240.985 175.32 239.491 174.957 238.19 174.232C236.889 173.485 235.865 172.461 235.118 171.16C234.393 169.859 234.03 168.376 234.03 166.712C234.03 165.411 234.233 164.227 234.638 163.16C235.065 162.072 235.641 161.144 236.366 160.376C237.113 159.587 237.998 158.979 239.022 158.552C240.046 158.125 241.166 157.912 242.382 157.912C243.449 157.912 244.441 158.104 245.358 158.488C246.297 158.872 247.107 159.427 247.79 160.152C248.473 160.856 248.995 161.699 249.358 162.68C249.721 163.64 249.881 164.707 249.838 165.88L249.806 167.096H235.79L235.278 165.112H247.79L247.342 165.656L247.374 164.856C247.331 163.939 247.075 163.128 246.606 162.424C246.137 161.72 245.529 161.165 244.782 160.76C244.057 160.355 243.257 160.152 242.382 160.152C241.145 160.152 240.078 160.419 239.182 160.952C238.286 161.464 237.603 162.2 237.134 163.16C236.686 164.099 236.451 165.229 236.43 166.552C236.451 167.875 236.729 169.027 237.262 170.008C237.795 170.968 238.542 171.725 239.502 172.28C240.483 172.813 241.614 173.08 242.894 173.08C243.811 173.08 244.665 172.931 245.454 172.632C246.243 172.312 247.043 171.789 247.854 171.064L249.07 172.792C248.558 173.304 247.95 173.752 247.246 174.136C246.563 174.499 245.827 174.787 245.038 175C244.249 175.213 243.459 175.32 242.67 175.32ZM253.335 175V158.2H255.766L255.799 163.064L255.511 162.232C255.724 161.464 256.087 160.749 256.599 160.088C257.132 159.427 257.772 158.904 258.519 158.52C259.265 158.115 260.087 157.912 260.983 157.912C261.345 157.912 261.687 157.944 262.007 158.008C262.327 158.051 262.593 158.115 262.807 158.2L262.167 160.856C261.868 160.749 261.559 160.664 261.239 160.6C260.94 160.515 260.652 160.472 260.375 160.472C259.713 160.472 259.095 160.611 258.519 160.888C257.964 161.144 257.484 161.496 257.079 161.944C256.673 162.392 256.353 162.904 256.119 163.48C255.905 164.035 255.799 164.611 255.799 165.208V175H253.335Z" fill="white"/>
<path d="M116.912 118V95.6H121.712V113.68H131.856V118H116.912ZM144.429 118V107.408C144.429 106.512 144.152 105.829 143.597 105.36C143.064 104.869 142.339 104.624 141.421 104.624C140.547 104.624 139.768 104.795 139.085 105.136C138.403 105.477 137.763 106.011 137.165 106.736L134.381 104.048C135.405 102.981 136.547 102.16 137.805 101.584C139.085 101.008 140.472 100.72 141.965 100.72C143.331 100.72 144.515 100.933 145.517 101.36C146.541 101.787 147.331 102.427 147.885 103.28C148.44 104.133 148.717 105.211 148.717 106.512V118H144.429ZM139.789 118.32C138.723 118.32 137.752 118.107 136.877 117.68C136.024 117.253 135.341 116.667 134.829 115.92C134.339 115.152 134.093 114.256 134.093 113.232C134.093 112.357 134.253 111.589 134.573 110.928C134.893 110.245 135.363 109.691 135.981 109.264C136.621 108.816 137.411 108.475 138.349 108.24C139.309 108.005 140.419 107.888 141.677 107.888H146.669L146.381 110.928H141.613C141.101 110.928 140.643 110.971 140.237 111.056C139.853 111.141 139.523 111.28 139.245 111.472C138.989 111.664 138.787 111.888 138.637 112.144C138.509 112.4 138.445 112.699 138.445 113.04C138.445 113.403 138.541 113.723 138.733 114C138.925 114.277 139.181 114.491 139.501 114.64C139.843 114.789 140.227 114.864 140.653 114.864C141.272 114.864 141.859 114.757 142.413 114.544C142.989 114.331 143.501 114.032 143.949 113.648C144.397 113.264 144.749 112.827 145.005 112.336L145.869 114.608C145.421 115.333 144.877 115.973 144.237 116.528C143.597 117.083 142.904 117.52 142.157 117.84C141.411 118.16 140.621 118.32 139.789 118.32ZM163.225 118V95.6H168.025V118H163.225ZM165.433 109.104V104.944H177.049V109.104H165.433ZM165.433 99.92V95.6H178.392V99.92H165.433ZM189.773 118.32C187.938 118.32 186.327 117.947 184.941 117.2C183.575 116.453 182.509 115.429 181.741 114.128C180.994 112.827 180.621 111.344 180.621 109.68C180.621 108.357 180.834 107.152 181.261 106.064C181.687 104.955 182.285 104.005 183.053 103.216C183.821 102.427 184.727 101.819 185.773 101.392C186.839 100.944 188.002 100.72 189.261 100.72C190.413 100.72 191.469 100.933 192.429 101.36C193.41 101.765 194.253 102.352 194.957 103.12C195.682 103.867 196.237 104.752 196.621 105.776C197.005 106.8 197.186 107.92 197.165 109.136L197.133 110.544H183.533L182.797 107.728H193.389L192.845 108.304V107.632C192.802 107.035 192.61 106.512 192.269 106.064C191.949 105.616 191.533 105.264 191.021 105.008C190.509 104.731 189.943 104.592 189.325 104.592C188.365 104.592 187.554 104.784 186.893 105.168C186.253 105.531 185.762 106.064 185.421 106.768C185.101 107.451 184.941 108.304 184.941 109.328C184.941 110.331 185.154 111.216 185.581 111.984C186.007 112.731 186.615 113.307 187.405 113.712C188.215 114.117 189.165 114.32 190.253 114.32C190.999 114.32 191.682 114.203 192.301 113.968C192.919 113.733 193.591 113.328 194.317 112.752L196.461 115.792C195.863 116.325 195.191 116.784 194.445 117.168C193.698 117.552 192.93 117.84 192.141 118.032C191.351 118.224 190.562 118.32 189.773 118.32ZM191.021 98.96L184.813 95.6L187.085 92.496L192.429 96.816L191.021 98.96ZM205.554 118L198.45 101.072H203.41L207.922 113.648L206.898 113.84L211.634 101.072H216.498L209.042 118H205.554ZM226.835 118.32C225.001 118.32 223.39 117.947 222.003 117.2C220.638 116.453 219.571 115.429 218.803 114.128C218.057 112.827 217.683 111.344 217.683 109.68C217.683 108.357 217.897 107.152 218.323 106.064C218.75 104.955 219.347 104.005 220.115 103.216C220.883 102.427 221.79 101.819 222.835 101.392C223.902 100.944 225.065 100.72 226.323 100.72C227.475 100.72 228.531 100.933 229.491 101.36C230.473 101.765 231.315 102.352 232.019 103.12C232.745 103.867 233.299 104.752 233.683 105.776C234.067 106.8 234.249 107.92 234.227 109.136L234.195 110.544H220.595L219.859 107.728H230.451L229.907 108.304V107.632C229.865 107.035 229.673 106.512 229.331 106.064C229.011 105.616 228.595 105.264 228.083 105.008C227.571 104.731 227.006 104.592 226.387 104.592C225.427 104.592 224.617 104.784 223.955 105.168C223.315 105.531 222.825 106.064 222.483 106.768C222.163 107.451 222.003 108.304 222.003 109.328C222.003 110.331 222.217 111.216 222.643 111.984C223.07 112.731 223.678 113.307 224.467 113.712C225.278 114.117 226.227 114.32 227.315 114.32C228.062 114.32 228.745 114.203 229.363 113.968C229.982 113.733 230.654 113.328 231.379 112.752L233.523 115.792C232.926 116.325 232.254 116.784 231.507 117.168C230.761 117.552 229.993 117.84 229.203 118.032C228.414 118.224 227.625 118.32 226.835 118.32Z" fill="white"/>
<path d="M40.56 224.376L39.568 219.992L50.864 208.6H56.72L40.56 224.376ZM36.912 231V208.6H41.712V231H36.912ZM51.44 231L43.056 219.896L46.384 217.048L57.168 231H51.44ZM59.9283 231V207.32H64.4403V217.528L63.5443 217.912C63.7576 217.144 64.1736 216.451 64.7923 215.832C65.4109 215.192 66.1469 214.68 67.0003 214.296C67.8536 213.912 68.7389 213.72 69.6563 213.72C70.9363 213.72 72.0029 213.976 72.8563 214.488C73.7309 215 74.3816 215.779 74.8083 216.824C75.2563 217.848 75.4803 219.128 75.4803 220.664V231H70.9363V220.984C70.9363 220.216 70.8296 219.576 70.6163 219.064C70.4029 218.552 70.0829 218.179 69.6563 217.944C69.2296 217.709 68.6856 217.603 68.0243 217.624C67.5123 217.624 67.0429 217.709 66.6163 217.88C66.1896 218.029 65.8056 218.253 65.4643 218.552C65.1443 218.851 64.8989 219.192 64.7283 219.576C64.5576 219.96 64.4723 220.387 64.4723 220.856V231H62.2003C61.7309 231 61.3043 231 60.9203 231C60.5363 231 60.2056 231 59.9283 231ZM89.2105 231V220.408C89.2105 219.512 88.9332 218.829 88.3785 218.36C87.8452 217.869 87.1198 217.624 86.2025 217.624C85.3278 217.624 84.5492 217.795 83.8665 218.136C83.1838 218.477 82.5438 219.011 81.9465 219.736L79.1625 217.048C80.1865 215.981 81.3278 215.16 82.5865 214.584C83.8665 214.008 85.2532 213.72 86.7465 213.72C88.1118 213.72 89.2958 213.933 90.2985 214.36C91.3225 214.787 92.1118 215.427 92.6665 216.28C93.2212 217.133 93.4985 218.211 93.4985 219.512V231H89.2105ZM84.5705 231.32C83.5038 231.32 82.5332 231.107 81.6585 230.68C80.8052 230.253 80.1225 229.667 79.6105 228.92C79.1198 228.152 78.8745 227.256 78.8745 226.232C78.8745 225.357 79.0345 224.589 79.3545 223.928C79.6745 223.245 80.1438 222.691 80.7625 222.264C81.4025 221.816 82.1918 221.475 83.1305 221.24C84.0905 221.005 85.1998 220.888 86.4585 220.888H91.4505L91.1625 223.928H86.3945C85.8825 223.928 85.4238 223.971 85.0185 224.056C84.6345 224.141 84.3038 224.28 84.0265 224.472C83.7705 224.664 83.5678 224.888 83.4185 225.144C83.2905 225.4 83.2265 225.699 83.2265 226.04C83.2265 226.403 83.3225 226.723 83.5145 227C83.7065 227.277 83.9625 227.491 84.2825 227.64C84.6238 227.789 85.0078 227.864 85.4345 227.864C86.0532 227.864 86.6398 227.757 87.1945 227.544C87.7705 227.331 88.2825 227.032 88.7305 226.648C89.1785 226.264 89.5305 225.827 89.7865 225.336L90.6505 227.608C90.2025 228.333 89.6585 228.973 89.0185 229.528C88.3785 230.083 87.6852 230.52 86.9385 230.84C86.1918 231.16 85.4025 231.32 84.5705 231.32ZM97.6165 231V207.32H102.161V231H97.6165ZM107.125 231V214.072H111.669V231H107.125ZM109.397 210.584C108.501 210.584 107.807 210.371 107.317 209.944C106.826 209.517 106.581 208.909 106.581 208.12C106.581 207.395 106.826 206.808 107.317 206.36C107.829 205.891 108.522 205.656 109.397 205.656C110.25 205.656 110.922 205.869 111.413 206.296C111.903 206.723 112.149 207.331 112.149 208.12C112.149 208.867 111.903 209.464 111.413 209.912C110.922 210.36 110.25 210.584 109.397 210.584Z" fill="white"/>
<path d="M222.68 249.32C221.955 249.32 221.261 249.224 220.6 249.032C219.96 248.84 219.363 248.563 218.808 248.2C218.275 247.837 217.795 247.411 217.368 246.92C216.941 246.408 216.579 245.843 216.28 245.224L217.88 243.56C218.435 244.413 218.957 245.085 219.448 245.576C219.939 246.045 220.44 246.376 220.952 246.568C221.485 246.76 222.072 246.856 222.712 246.856C223.587 246.856 224.344 246.664 224.984 246.28C225.645 245.896 226.157 245.341 226.52 244.616C226.904 243.869 227.096 242.984 227.096 241.96V228.968H222.968V226.6H233.048V228.968H229.624V242.184C229.624 243.272 229.453 244.253 229.112 245.128C228.792 246.003 228.323 246.76 227.704 247.4C227.085 248.019 226.349 248.499 225.496 248.84C224.664 249.16 223.725 249.32 222.68 249.32ZM242.4 249L242.304 248.744L248.96 235.272L249.056 237C248.566 237.896 247.979 238.664 247.296 239.304C246.635 239.923 245.92 240.392 245.152 240.712C244.384 241.032 243.574 241.192 242.72 241.192C241.462 241.192 240.31 240.872 239.264 240.232C238.219 239.592 237.376 238.728 236.736 237.64C236.118 236.552 235.808 235.347 235.808 234.024C235.808 232.573 236.139 231.261 236.8 230.088C237.483 228.893 238.4 227.955 239.552 227.272C240.704 226.589 241.995 226.248 243.424 226.248C244.491 226.248 245.472 226.44 246.368 226.824C247.286 227.187 248.086 227.709 248.768 228.392C249.472 229.075 250.016 229.875 250.4 230.792C250.806 231.709 251.008 232.691 251.008 233.736C251.008 234.333 250.944 234.963 250.816 235.624C250.688 236.264 250.496 236.957 250.24 237.704C249.984 238.451 249.654 239.272 249.248 240.168C248.864 241.064 248.395 242.067 247.84 243.176L244.896 249H242.4ZM243.2 238.824C244.16 238.824 245.024 238.6 245.792 238.152C246.582 237.704 247.19 237.107 247.616 236.36C248.064 235.592 248.288 234.728 248.288 233.768C248.288 232.808 248.064 231.933 247.616 231.144C247.19 230.355 246.592 229.736 245.824 229.288C245.078 228.84 244.214 228.616 243.232 228.616C242.336 228.616 241.515 228.84 240.768 229.288C240.043 229.736 239.467 230.344 239.04 231.112C238.614 231.88 238.4 232.765 238.4 233.768C238.4 234.685 238.614 235.528 239.04 236.296C239.467 237.064 240.043 237.683 240.768 238.152C241.515 238.6 242.326 238.824 243.2 238.824ZM260.538 249.32C259.301 249.32 258.234 249.064 257.338 248.552C256.442 248.019 255.749 247.261 255.258 246.28C254.789 245.277 254.554 244.051 254.554 242.6V232.2H256.986V241.992C256.986 243.677 257.37 244.968 258.138 245.864C258.927 246.739 260.026 247.176 261.434 247.176C262.117 247.176 262.735 247.059 263.29 246.824C263.866 246.568 264.367 246.237 264.794 245.832C265.221 245.427 265.551 244.979 265.786 244.488C266.042 243.976 266.17 243.464 266.17 242.952V232.2H268.602V249H266.202L266.17 245.352L266.65 245.096C266.394 245.864 265.957 246.579 265.338 247.24C264.741 247.88 264.026 248.392 263.194 248.776C262.383 249.139 261.498 249.32 260.538 249.32ZM280.826 249.32C279.141 249.32 277.648 248.957 276.346 248.232C275.045 247.485 274.021 246.461 273.274 245.16C272.549 243.859 272.186 242.376 272.186 240.712C272.186 239.411 272.389 238.227 272.794 237.16C273.221 236.072 273.797 235.144 274.522 234.376C275.269 233.587 276.154 232.979 277.178 232.552C278.202 232.125 279.322 231.912 280.538 231.912C281.605 231.912 282.597 232.104 283.514 232.488C284.453 232.872 285.264 233.427 285.946 234.152C286.629 234.856 287.152 235.699 287.514 236.68C287.877 237.64 288.037 238.707 287.994 239.88L287.962 241.096H273.946L273.434 239.112H285.946L285.498 239.656L285.53 238.856C285.488 237.939 285.232 237.128 284.762 236.424C284.293 235.72 283.685 235.165 282.938 234.76C282.213 234.355 281.413 234.152 280.538 234.152C279.301 234.152 278.234 234.419 277.338 234.952C276.442 235.464 275.76 236.2 275.29 237.16C274.842 238.099 274.608 239.229 274.586 240.552C274.608 241.875 274.885 243.027 275.418 244.008C275.952 244.968 276.698 245.725 277.658 246.28C278.64 246.813 279.77 247.08 281.05 247.08C281.968 247.08 282.821 246.931 283.61 246.632C284.4 246.312 285.2 245.789 286.01 245.064L287.226 246.792C286.714 247.304 286.106 247.752 285.402 248.136C284.72 248.499 283.984 248.787 283.194 249C282.405 249.213 281.616 249.32 280.826 249.32ZM296.522 249L289.514 232.2H292.17L297.706 245.928L297.162 246.12L302.954 232.2H305.482L298.25 249H296.522ZM315.576 249.32C313.891 249.32 312.398 248.957 311.096 248.232C309.795 247.485 308.771 246.461 308.024 245.16C307.299 243.859 306.936 242.376 306.936 240.712C306.936 239.411 307.139 238.227 307.544 237.16C307.971 236.072 308.547 235.144 309.272 234.376C310.019 233.587 310.904 232.979 311.928 232.552C312.952 232.125 314.072 231.912 315.288 231.912C316.355 231.912 317.347 232.104 318.264 232.488C319.203 232.872 320.014 233.427 320.696 234.152C321.379 234.856 321.902 235.699 322.264 236.68C322.627 237.64 322.787 238.707 322.744 239.88L322.712 241.096H308.696L308.184 239.112H320.696L320.248 239.656L320.28 238.856C320.238 237.939 319.982 237.128 319.512 236.424C319.043 235.72 318.435 235.165 317.688 234.76C316.963 234.355 316.163 234.152 315.288 234.152C314.051 234.152 312.984 234.419 312.088 234.952C311.192 235.464 310.51 236.2 310.04 237.16C309.592 238.099 309.358 239.229 309.336 240.552C309.358 241.875 309.635 243.027 310.168 244.008C310.702 244.968 311.448 245.725 312.408 246.28C313.39 246.813 314.52 247.08 315.8 247.08C316.718 247.08 317.571 246.931 318.36 246.632C319.15 246.312 319.95 245.789 320.76 245.064L321.976 246.792C321.464 247.304 320.856 247.752 320.152 248.136C319.47 248.499 318.734 248.787 317.944 249C317.155 249.213 316.366 249.32 315.576 249.32Z" fill="white"/>
<path d="M361.192 197.32C360.467 197.32 359.773 197.224 359.112 197.032C358.451 196.84 357.832 196.563 357.256 196.2C356.701 195.837 356.2 195.411 355.752 194.92C355.304 194.408 354.92 193.853 354.6 193.256L356.776 190.984C357.395 191.816 357.928 192.445 358.376 192.872C358.845 193.299 359.293 193.587 359.72 193.736C360.168 193.885 360.659 193.96 361.192 193.96C361.96 193.96 362.632 193.789 363.208 193.448C363.784 193.085 364.232 192.595 364.552 191.976C364.872 191.357 365.032 190.653 365.032 189.864V177.8H360.936V174.6H371.944V177.8H368.488V190.184C368.488 191.208 368.307 192.157 367.944 193.032C367.603 193.885 367.101 194.632 366.44 195.272C365.8 195.912 365.032 196.413 364.136 196.776C363.261 197.139 362.28 197.32 361.192 197.32ZM384.194 197V186.056C384.194 185.117 383.852 184.36 383.17 183.784C382.508 183.187 381.666 182.888 380.642 182.888C379.703 182.888 378.85 183.08 378.082 183.464C377.335 183.848 376.652 184.435 376.034 185.224L373.89 183.08C374.892 181.992 375.97 181.181 377.122 180.648C378.295 180.115 379.554 179.848 380.898 179.848C382.178 179.848 383.287 180.061 384.226 180.488C385.164 180.915 385.89 181.544 386.402 182.376C386.914 183.187 387.17 184.179 387.17 185.352V197H384.194ZM379.17 197.32C378.082 197.32 377.111 197.107 376.258 196.68C375.404 196.253 374.722 195.667 374.21 194.92C373.719 194.152 373.474 193.256 373.474 192.232C373.474 191.336 373.634 190.547 373.954 189.864C374.274 189.181 374.743 188.616 375.362 188.168C376.002 187.72 376.791 187.379 377.73 187.144C378.69 186.909 379.788 186.792 381.026 186.792H385.698L385.41 189.416H380.61C379.97 189.416 379.394 189.48 378.882 189.608C378.391 189.715 377.964 189.896 377.602 190.152C377.26 190.387 377.004 190.675 376.834 191.016C376.663 191.336 376.578 191.72 376.578 192.168C376.578 192.637 376.695 193.053 376.93 193.416C377.164 193.757 377.484 194.024 377.89 194.216C378.295 194.408 378.764 194.504 379.298 194.504C380.066 194.504 380.791 194.376 381.474 194.12C382.178 193.843 382.796 193.469 383.33 193C383.884 192.531 384.311 192.008 384.61 191.432L385.378 193.576C384.93 194.323 384.375 194.973 383.714 195.528C383.052 196.083 382.338 196.52 381.57 196.84C380.802 197.16 380.002 197.32 379.17 197.32ZM383.682 176.456C382.978 176.456 382.434 176.275 382.05 175.912C381.666 175.549 381.474 175.037 381.474 174.376C381.474 173.757 381.666 173.256 382.05 172.872C382.455 172.488 382.999 172.296 383.682 172.296C384.386 172.296 384.93 172.477 385.314 172.84C385.698 173.203 385.89 173.715 385.89 174.376C385.89 174.995 385.687 175.496 385.282 175.88C384.898 176.264 384.364 176.456 383.682 176.456ZM377.282 176.456C376.578 176.456 376.034 176.275 375.65 175.912C375.266 175.549 375.074 175.037 375.074 174.376C375.074 173.757 375.266 173.256 375.65 172.872C376.055 172.488 376.599 172.296 377.282 172.296C377.986 172.296 378.53 172.477 378.914 172.84C379.298 173.203 379.49 173.715 379.49 174.376C379.49 174.995 379.287 175.496 378.882 175.88C378.498 176.264 377.964 176.456 377.282 176.456ZM398.343 197.32C396.807 197.32 395.431 196.947 394.215 196.2C393.021 195.432 392.071 194.397 391.367 193.096C390.663 191.773 390.311 190.269 390.311 188.584C390.311 186.899 390.653 185.405 391.335 184.104C392.039 182.781 392.989 181.747 394.183 181C395.378 180.232 396.733 179.848 398.247 179.848C399.079 179.848 399.879 179.987 400.647 180.264C401.437 180.52 402.141 180.883 402.759 181.352C403.378 181.8 403.858 182.301 404.199 182.856C404.562 183.389 404.743 183.933 404.743 184.488L403.783 184.552V173.32H407.079V197H403.783V193H404.423C404.423 193.512 404.253 194.024 403.911 194.536C403.57 195.027 403.111 195.485 402.535 195.912C401.981 196.339 401.33 196.68 400.583 196.936C399.858 197.192 399.111 197.32 398.343 197.32ZM398.791 194.472C399.794 194.472 400.679 194.216 401.447 193.704C402.215 193.192 402.813 192.499 403.239 191.624C403.687 190.728 403.911 189.715 403.911 188.584C403.911 187.453 403.687 186.451 403.239 185.576C402.813 184.68 402.215 183.976 401.447 183.464C400.679 182.952 399.794 182.696 398.791 182.696C397.789 182.696 396.903 182.952 396.135 183.464C395.367 183.976 394.759 184.68 394.311 185.576C393.885 186.451 393.671 187.453 393.671 188.584C393.671 189.715 393.885 190.728 394.311 191.624C394.759 192.499 395.367 193.192 396.135 193.704C396.903 194.216 397.789 194.472 398.791 194.472ZM419.457 197.32C417.729 197.32 416.193 196.957 414.849 196.232C413.526 195.485 412.481 194.472 411.713 193.192C410.966 191.912 410.593 190.44 410.593 188.776C410.593 187.453 410.806 186.248 411.233 185.16C411.659 184.072 412.246 183.133 412.993 182.344C413.761 181.533 414.667 180.915 415.713 180.488C416.779 180.04 417.931 179.816 419.169 179.816C420.257 179.816 421.27 180.029 422.209 180.456C423.147 180.861 423.958 181.427 424.641 182.152C425.345 182.877 425.878 183.741 426.241 184.744C426.625 185.725 426.806 186.803 426.785 187.976L426.753 189.384H413.025L412.289 186.76H423.905L423.425 187.304V186.536C423.361 185.832 423.126 185.203 422.721 184.648C422.315 184.093 421.803 183.656 421.185 183.336C420.566 183.016 419.894 182.856 419.169 182.856C418.017 182.856 417.046 183.08 416.257 183.528C415.467 183.955 414.87 184.595 414.465 185.448C414.059 186.28 413.857 187.315 413.857 188.552C413.857 189.725 414.102 190.749 414.593 191.624C415.083 192.477 415.777 193.139 416.673 193.608C417.569 194.077 418.603 194.312 419.777 194.312C420.609 194.312 421.377 194.173 422.081 193.896C422.806 193.619 423.585 193.117 424.417 192.392L426.081 194.728C425.569 195.24 424.939 195.688 424.193 196.072C423.467 196.456 422.689 196.765 421.857 197C421.046 197.213 420.246 197.32 419.457 197.32Z" fill="white"/>
<path d="M230.912 361V338.6H235.296L243.424 351.848L240.576 351.816L248.832 338.6H253.056V361H248.352V353.416C248.352 351.475 248.395 349.725 248.48 348.168C248.587 346.611 248.757 345.075 248.992 343.56L249.536 345.064L242.976 355.208H240.832L234.432 345.128L234.944 343.56C235.2 344.989 235.371 346.461 235.456 347.976C235.563 349.491 235.616 351.304 235.616 353.416V361H230.912ZM267.586 361V350.408C267.586 349.512 267.308 348.829 266.754 348.36C266.22 347.869 265.495 347.624 264.578 347.624C263.703 347.624 262.924 347.795 262.242 348.136C261.559 348.477 260.919 349.011 260.322 349.736L257.538 347.048C258.562 345.981 259.703 345.16 260.962 344.584C262.242 344.008 263.628 343.72 265.122 343.72C266.487 343.72 267.671 343.933 268.674 344.36C269.698 344.787 270.487 345.427 271.042 346.28C271.596 347.133 271.874 348.211 271.874 349.512V361H267.586ZM262.946 361.32C261.879 361.32 260.908 361.107 260.034 360.68C259.18 360.253 258.498 359.667 257.986 358.92C257.495 358.152 257.25 357.256 257.25 356.232C257.25 355.357 257.41 354.589 257.73 353.928C258.05 353.245 258.519 352.691 259.138 352.264C259.778 351.816 260.567 351.475 261.506 351.24C262.466 351.005 263.575 350.888 264.834 350.888H269.826L269.538 353.928H264.77C264.258 353.928 263.799 353.971 263.394 354.056C263.01 354.141 262.679 354.28 262.402 354.472C262.146 354.664 261.943 354.888 261.794 355.144C261.666 355.4 261.602 355.699 261.602 356.04C261.602 356.403 261.698 356.723 261.89 357C262.082 357.277 262.338 357.491 262.658 357.64C262.999 357.789 263.383 357.864 263.81 357.864C264.428 357.864 265.015 357.757 265.57 357.544C266.146 357.331 266.658 357.032 267.106 356.648C267.554 356.264 267.906 355.827 268.162 355.336L269.026 357.608C268.578 358.333 268.034 358.973 267.394 359.528C266.754 360.083 266.06 360.52 265.314 360.84C264.567 361.16 263.778 361.32 262.946 361.32ZM275.992 361V337.32H280.536V361H275.992ZM292.643 361.32C290.937 361.32 289.401 360.947 288.035 360.2C286.691 359.432 285.625 358.387 284.835 357.064C284.067 355.741 283.683 354.237 283.683 352.552C283.683 350.824 284.067 349.299 284.835 347.976C285.625 346.653 286.691 345.619 288.035 344.872C289.401 344.104 290.937 343.72 292.643 343.72C294.371 343.72 295.907 344.104 297.251 344.872C298.595 345.619 299.651 346.653 300.419 347.976C301.209 349.299 301.603 350.824 301.603 352.552C301.603 354.237 301.209 355.741 300.419 357.064C299.651 358.387 298.595 359.432 297.251 360.2C295.907 360.947 294.371 361.32 292.643 361.32ZM292.643 357.384C293.497 357.384 294.243 357.171 294.883 356.744C295.545 356.317 296.057 355.741 296.419 355.016C296.803 354.291 296.985 353.469 296.963 352.552C296.985 351.592 296.803 350.749 296.419 350.024C296.057 349.277 295.545 348.701 294.883 348.296C294.243 347.869 293.497 347.656 292.643 347.656C291.811 347.656 291.065 347.869 290.403 348.296C289.742 348.723 289.219 349.299 288.835 350.024C288.451 350.749 288.27 351.592 288.291 352.552C288.27 353.469 288.451 354.291 288.835 355.016C289.219 355.741 289.742 356.317 290.403 356.744C291.065 357.171 291.811 357.384 292.643 357.384Z" fill="white"/>
<path d="M64.264 299V276.6H73.288C74.5467 276.6 75.6773 276.899 76.68 277.496C77.704 278.093 78.504 278.904 79.08 279.928C79.6773 280.952 79.976 282.115 79.976 283.416C79.976 284.675 79.6773 285.827 79.08 286.872C78.504 287.917 77.704 288.749 76.68 289.368C75.6773 289.987 74.5467 290.296 73.288 290.296H66.792V299H64.264ZM77.768 299L72.072 289.08L74.696 288.472L80.84 299.032L77.768 299ZM66.792 287.832H73.576C74.3227 287.832 74.984 287.64 75.56 287.256C76.136 286.872 76.584 286.349 76.904 285.688C77.224 285.005 77.384 284.237 77.384 283.384C77.384 282.531 77.192 281.784 76.808 281.144C76.4453 280.483 75.9333 279.971 75.272 279.608C74.6107 279.224 73.8427 279.032 72.968 279.032H66.792V287.832ZM94.5835 299V287.8C94.5835 286.712 94.1995 285.837 93.4315 285.176C92.6635 284.515 91.6502 284.184 90.3915 284.184C89.3462 284.184 88.3968 284.397 87.5435 284.824C86.6902 285.251 85.9328 285.891 85.2715 286.744L83.6715 285.144C84.6315 284.056 85.6768 283.245 86.8075 282.712C87.9595 282.179 89.2075 281.912 90.5515 281.912C91.8315 281.912 92.9408 282.125 93.8795 282.552C94.8182 282.979 95.5328 283.597 96.0235 284.408C96.5355 285.219 96.7915 286.2 96.7915 287.352V299H94.5835ZM88.8235 299.32C87.7355 299.32 86.7648 299.107 85.9115 298.68C85.0582 298.253 84.3755 297.667 83.8635 296.92C83.3728 296.152 83.1275 295.256 83.1275 294.232C83.1275 293.4 83.2768 292.664 83.5755 292.024C83.8955 291.384 84.3542 290.851 84.9515 290.424C85.5488 289.997 86.3062 289.677 87.2235 289.464C88.1408 289.229 89.1862 289.112 90.3595 289.112H95.6715L95.4795 291.128H90.0395C89.2928 291.128 88.6315 291.192 88.0555 291.32C87.5008 291.448 87.0208 291.651 86.6155 291.928C86.2315 292.184 85.9328 292.504 85.7195 292.888C85.5275 293.251 85.4315 293.688 85.4315 294.2C85.4315 294.797 85.5808 295.331 85.8795 295.8C86.1995 296.248 86.6155 296.6 87.1275 296.856C87.6608 297.091 88.2582 297.208 88.9195 297.208C89.7942 297.208 90.6155 297.059 91.3835 296.76C92.1515 296.44 92.8342 296.013 93.4315 295.48C94.0502 294.925 94.5408 294.307 94.9035 293.624L95.5755 295.16C95.1062 295.971 94.5195 296.696 93.8155 297.336C93.1115 297.955 92.3328 298.445 91.4795 298.808C90.6475 299.149 89.7622 299.32 88.8235 299.32ZM108.157 299.32C106.599 299.32 105.213 298.947 103.997 298.2C102.802 297.432 101.853 296.397 101.149 295.096C100.445 293.795 100.093 292.312 100.093 290.648C100.093 288.963 100.445 287.469 101.149 286.168C101.853 284.845 102.802 283.811 103.997 283.064C105.213 282.296 106.567 281.912 108.061 281.912C108.893 281.912 109.703 282.051 110.493 282.328C111.282 282.605 111.986 282.989 112.605 283.48C113.245 283.949 113.757 284.483 114.141 285.08C114.525 285.677 114.738 286.296 114.781 286.936H114.109V275.32H116.541V299H114.109V294.488L114.621 294.456C114.557 295.096 114.333 295.704 113.949 296.28C113.565 296.856 113.074 297.379 112.477 297.848C111.901 298.296 111.239 298.659 110.493 298.936C109.746 299.192 108.967 299.32 108.157 299.32ZM108.445 297.176C109.554 297.176 110.535 296.899 111.389 296.344C112.263 295.768 112.946 294.989 113.437 294.008C113.927 293.027 114.173 291.896 114.173 290.616C114.173 289.336 113.927 288.205 113.437 287.224C112.946 286.243 112.263 285.464 111.389 284.888C110.535 284.312 109.543 284.024 108.413 284.024C107.282 284.024 106.269 284.312 105.373 284.888C104.498 285.464 103.805 286.253 103.293 287.256C102.802 288.237 102.557 289.368 102.557 290.648C102.557 291.885 102.802 293.005 103.293 294.008C103.805 294.989 104.498 295.768 105.373 296.344C106.269 296.899 107.293 297.176 108.445 297.176ZM140.166 299.32C138.587 299.32 137.137 299.043 135.814 298.488C134.513 297.933 133.371 297.144 132.39 296.12C131.43 295.096 130.683 293.88 130.15 292.472C129.638 291.064 129.382 289.517 129.382 287.832C129.382 286.211 129.659 284.707 130.214 283.32C130.769 281.912 131.537 280.696 132.518 279.672C133.521 278.627 134.683 277.816 136.006 277.24C137.329 276.664 138.779 276.376 140.358 276.376C141.446 276.376 142.502 276.536 143.526 276.856C144.55 277.176 145.478 277.624 146.31 278.2C147.163 278.776 147.878 279.437 148.454 280.184L146.726 281.944C145.809 280.963 144.806 280.216 143.718 279.704C142.651 279.171 141.531 278.904 140.358 278.904C139.163 278.904 138.054 279.128 137.03 279.576C136.006 280.024 135.11 280.643 134.342 281.432C133.595 282.221 133.009 283.171 132.582 284.28C132.155 285.368 131.942 286.552 131.942 287.832C131.942 289.176 132.155 290.403 132.582 291.512C133.009 292.6 133.595 293.539 134.342 294.328C135.11 295.096 136.017 295.693 137.062 296.12C138.107 296.547 139.27 296.76 140.55 296.76C141.339 296.76 142.107 296.664 142.854 296.472C143.601 296.259 144.294 295.96 144.934 295.576C145.574 295.192 146.161 294.744 146.694 294.232L148.006 296.312C147.473 296.888 146.79 297.411 145.958 297.88C145.126 298.328 144.209 298.68 143.206 298.936C142.225 299.192 141.211 299.32 140.166 299.32ZM162.459 299V287.8C162.459 286.712 162.075 285.837 161.307 285.176C160.539 284.515 159.525 284.184 158.267 284.184C157.221 284.184 156.272 284.397 155.419 284.824C154.565 285.251 153.808 285.891 153.147 286.744L151.547 285.144C152.507 284.056 153.552 283.245 154.683 282.712C155.835 282.179 157.083 281.912 158.427 281.912C159.707 281.912 160.816 282.125 161.755 282.552C162.693 282.979 163.408 283.597 163.899 284.408C164.411 285.219 164.667 286.2 164.667 287.352V299H162.459ZM156.699 299.32C155.611 299.32 154.64 299.107 153.786 298.68C152.933 298.253 152.251 297.667 151.739 296.92C151.248 296.152 151.003 295.256 151.003 294.232C151.003 293.4 151.152 292.664 151.451 292.024C151.771 291.384 152.229 290.851 152.827 290.424C153.424 289.997 154.181 289.677 155.099 289.464C156.016 289.229 157.061 289.112 158.235 289.112H163.547L163.355 291.128H157.915C157.168 291.128 156.507 291.192 155.931 291.32C155.376 291.448 154.896 291.651 154.491 291.928C154.107 292.184 153.808 292.504 153.595 292.888C153.403 293.251 153.307 293.688 153.307 294.2C153.307 294.797 153.456 295.331 153.755 295.8C154.075 296.248 154.491 296.6 155.003 296.856C155.536 297.091 156.133 297.208 156.795 297.208C157.669 297.208 158.491 297.059 159.259 296.76C160.027 296.44 160.709 296.013 161.307 295.48C161.925 294.925 162.416 294.307 162.779 293.624L163.451 295.16C162.981 295.971 162.395 296.696 161.691 297.336C160.987 297.955 160.208 298.445 159.355 298.808C158.523 299.149 157.637 299.32 156.699 299.32ZM168.96 299V282.2H171.391L171.424 287.064L171.136 286.232C171.349 285.464 171.712 284.749 172.224 284.088C172.757 283.427 173.397 282.904 174.144 282.52C174.89 282.115 175.712 281.912 176.608 281.912C176.97 281.912 177.312 281.944 177.632 282.008C177.952 282.051 178.218 282.115 178.432 282.2L177.792 284.856C177.493 284.749 177.184 284.664 176.864 284.6C176.565 284.515 176.277 284.472 176 284.472C175.338 284.472 174.72 284.611 174.144 284.888C173.589 285.144 173.109 285.496 172.704 285.944C172.298 286.392 171.978 286.904 171.744 287.48C171.53 288.035 171.424 288.611 171.424 289.208V299H168.96ZM183.891 299V277.912H186.323V299H183.891ZM180.019 284.568V282.2H190.515V284.568H180.019ZM193.972 299V282.2H196.404V299H193.972ZM195.156 278.264C194.602 278.264 194.164 278.115 193.844 277.816C193.546 277.496 193.396 277.08 193.396 276.568C193.396 276.056 193.546 275.651 193.844 275.352C194.164 275.032 194.602 274.872 195.156 274.872C195.711 274.872 196.138 275.021 196.436 275.32C196.756 275.619 196.916 276.035 196.916 276.568C196.916 277.059 196.767 277.464 196.468 277.784C196.17 278.104 195.732 278.264 195.156 278.264ZM209.076 299.32C207.391 299.32 205.898 298.957 204.596 298.232C203.295 297.485 202.271 296.461 201.524 295.16C200.799 293.859 200.436 292.376 200.436 290.712C200.436 289.411 200.639 288.227 201.044 287.16C201.471 286.072 202.047 285.144 202.772 284.376C203.519 283.587 204.404 282.979 205.428 282.552C206.452 282.125 207.572 281.912 208.788 281.912C209.855 281.912 210.847 282.104 211.764 282.488C212.703 282.872 213.514 283.427 214.196 284.152C214.879 284.856 215.402 285.699 215.764 286.68C216.127 287.64 216.287 288.707 216.244 289.88L216.212 291.096H202.196L201.684 289.112H214.196L213.748 289.656L213.78 288.856C213.738 287.939 213.482 287.128 213.012 286.424C212.543 285.72 211.935 285.165 211.188 284.76C210.463 284.355 209.663 284.152 208.788 284.152C207.551 284.152 206.484 284.419 205.588 284.952C204.692 285.464 204.01 286.2 203.54 287.16C203.092 288.099 202.858 289.229 202.836 290.552C202.858 291.875 203.135 293.027 203.668 294.008C204.202 294.968 204.948 295.725 205.908 296.28C206.89 296.813 208.02 297.08 209.3 297.08C210.218 297.08 211.071 296.931 211.86 296.632C212.65 296.312 213.45 295.789 214.26 295.064L215.476 296.792C214.964 297.304 214.356 297.752 213.652 298.136C212.97 298.499 212.234 298.787 211.444 299C210.655 299.213 209.866 299.32 209.076 299.32ZM219.741 299V282.2H222.173L222.205 287.064L221.917 286.232C222.13 285.464 222.493 284.749 223.005 284.088C223.538 283.427 224.178 282.904 224.925 282.52C225.671 282.115 226.493 281.912 227.389 281.912C227.751 281.912 228.093 281.944 228.413 282.008C228.733 282.051 228.999 282.115 229.213 282.2L228.573 284.856C228.274 284.749 227.965 284.664 227.645 284.6C227.346 284.515 227.058 284.472 226.781 284.472C226.119 284.472 225.501 284.611 224.925 284.888C224.37 285.144 223.89 285.496 223.485 285.944C223.079 286.392 222.759 286.904 222.525 287.48C222.311 288.035 222.205 288.611 222.205 289.208V299H219.741Z" fill="white"/>
<path d="M326.912 312V289.6H331.712V307.68H341.856V312H326.912ZM354.429 312V301.408C354.429 300.512 354.152 299.829 353.597 299.36C353.064 298.869 352.339 298.624 351.421 298.624C350.547 298.624 349.768 298.795 349.085 299.136C348.403 299.477 347.763 300.011 347.165 300.736L344.381 298.048C345.405 296.981 346.547 296.16 347.805 295.584C349.085 295.008 350.472 294.72 351.965 294.72C353.331 294.72 354.515 294.933 355.517 295.36C356.541 295.787 357.331 296.427 357.885 297.28C358.44 298.133 358.717 299.211 358.717 300.512V312H354.429ZM349.789 312.32C348.723 312.32 347.752 312.107 346.877 311.68C346.024 311.253 345.341 310.667 344.829 309.92C344.339 309.152 344.093 308.256 344.093 307.232C344.093 306.357 344.253 305.589 344.573 304.928C344.893 304.245 345.363 303.691 345.981 303.264C346.621 302.816 347.411 302.475 348.349 302.24C349.309 302.005 350.419 301.888 351.677 301.888H356.669L356.381 304.928H351.613C351.101 304.928 350.643 304.971 350.237 305.056C349.853 305.141 349.523 305.28 349.245 305.472C348.989 305.664 348.787 305.888 348.637 306.144C348.509 306.4 348.445 306.699 348.445 307.04C348.445 307.403 348.541 307.723 348.733 308C348.925 308.277 349.181 308.491 349.501 308.64C349.843 308.789 350.227 308.864 350.653 308.864C351.272 308.864 351.859 308.757 352.413 308.544C352.989 308.331 353.501 308.032 353.949 307.648C354.397 307.264 354.749 306.827 355.005 306.336L355.869 308.608C355.421 309.333 354.877 309.973 354.237 310.528C353.597 311.083 352.904 311.52 352.157 311.84C351.411 312.16 350.621 312.32 349.789 312.32ZM362.835 312V288.32H367.379V312H362.835ZM381.023 312V301.408C381.023 300.512 380.746 299.829 380.191 299.36C379.658 298.869 378.932 298.624 378.015 298.624C377.14 298.624 376.362 298.795 375.679 299.136C374.996 299.477 374.356 300.011 373.759 300.736L370.975 298.048C371.999 296.981 373.14 296.16 374.399 295.584C375.679 295.008 377.066 294.72 378.559 294.72C379.924 294.72 381.108 294.933 382.111 295.36C383.135 295.787 383.924 296.427 384.479 297.28C385.034 298.133 385.311 299.211 385.311 300.512V312H381.023ZM376.383 312.32C375.316 312.32 374.346 312.107 373.471 311.68C372.618 311.253 371.935 310.667 371.423 309.92C370.932 309.152 370.687 308.256 370.687 307.232C370.687 306.357 370.847 305.589 371.167 304.928C371.487 304.245 371.956 303.691 372.575 303.264C373.215 302.816 374.004 302.475 374.943 302.24C375.903 302.005 377.012 301.888 378.271 301.888H383.263L382.975 304.928H378.207C377.695 304.928 377.236 304.971 376.831 305.056C376.447 305.141 376.116 305.28 375.839 305.472C375.583 305.664 375.38 305.888 375.231 306.144C375.103 306.4 375.039 306.699 375.039 307.04C375.039 307.403 375.135 307.723 375.327 308C375.519 308.277 375.775 308.491 376.095 308.64C376.436 308.789 376.82 308.864 377.247 308.864C377.866 308.864 378.452 308.757 379.007 308.544C379.583 308.331 380.095 308.032 380.543 307.648C380.991 307.264 381.343 306.827 381.599 306.336L382.463 308.608C382.015 309.333 381.471 309.973 380.831 310.528C380.191 311.083 379.498 311.52 378.751 311.84C378.004 312.16 377.215 312.32 376.383 312.32ZM415.434 312L412.938 309.376L411.498 308.032L406.538 302.624C405.813 301.856 405.184 301.12 404.65 300.416C404.117 299.712 403.669 299.051 403.306 298.432C402.965 297.792 402.698 297.195 402.506 296.64C402.336 296.064 402.25 295.531 402.25 295.04C402.25 293.909 402.549 292.907 403.146 292.032C403.744 291.136 404.565 290.432 405.61 289.92C406.656 289.408 407.861 289.152 409.226 289.152C410.25 289.152 411.21 289.333 412.106 289.696C413.024 290.037 413.813 290.528 414.474 291.168C415.136 291.808 415.605 292.555 415.882 293.408L412.362 295.552C411.978 294.635 411.552 293.995 411.082 293.632C410.613 293.269 410.037 293.088 409.354 293.088C408.842 293.088 408.405 293.173 408.042 293.344C407.68 293.493 407.402 293.728 407.21 294.048C407.018 294.347 406.922 294.741 406.922 295.232C406.922 295.659 407.072 296.171 407.37 296.768C407.69 297.344 408.096 297.941 408.586 298.56C409.077 299.157 409.568 299.733 410.058 300.288C410.549 300.821 410.976 301.269 411.338 301.632L414.378 305.024L416.17 306.688L421.098 312H415.434ZM407.114 312.32C405.514 312.32 404.064 312 402.762 311.36C401.461 310.699 400.426 309.824 399.658 308.736C398.89 307.648 398.506 306.443 398.506 305.12C398.506 303.499 398.965 302.069 399.882 300.832C400.8 299.573 402.154 298.613 403.946 297.952L406.762 300.896C405.504 301.173 404.565 301.621 403.946 302.24C403.328 302.859 403.018 303.68 403.018 304.704C403.018 305.472 403.2 306.144 403.562 306.72C403.946 307.296 404.48 307.744 405.162 308.064C405.866 308.384 406.709 308.544 407.69 308.544C408.565 308.544 409.376 308.373 410.122 308.032C410.89 307.669 411.573 307.157 412.17 306.496C412.768 305.835 413.258 305.056 413.642 304.16C414.048 303.243 414.314 302.229 414.442 301.12H418.634C418.442 302.464 418.112 303.712 417.642 304.864C417.194 305.995 416.618 307.029 415.914 307.968C415.21 308.885 414.41 309.675 413.514 310.336C412.64 310.976 411.658 311.467 410.57 311.808C409.482 312.149 408.33 312.32 407.114 312.32ZM431.007 312.32C429.386 312.32 427.935 311.936 426.655 311.168C425.375 310.4 424.362 309.355 423.615 308.032C422.89 306.688 422.527 305.195 422.527 303.552C422.527 301.867 422.89 300.363 423.615 299.04C424.362 297.696 425.375 296.64 426.655 295.872C427.935 295.104 429.386 294.72 431.007 294.72C432.522 294.72 433.898 295.008 435.135 295.584C436.394 296.139 437.375 296.907 438.079 297.888L435.615 300.896C435.316 300.491 434.943 300.117 434.495 299.776C434.047 299.435 433.556 299.168 433.023 298.976C432.511 298.784 431.978 298.688 431.423 298.688C430.548 298.688 429.77 298.901 429.087 299.328C428.404 299.733 427.871 300.309 427.487 301.056C427.103 301.781 426.911 302.603 426.911 303.52C426.911 304.416 427.114 305.227 427.519 305.952C427.924 306.677 428.468 307.253 429.151 307.68C429.834 308.107 430.591 308.32 431.423 308.32C431.978 308.32 432.5 308.245 432.991 308.096C433.503 307.925 433.972 307.68 434.399 307.36C434.826 307.04 435.231 306.667 435.615 306.24L438.079 309.248C437.375 310.165 436.372 310.912 435.071 311.488C433.791 312.043 432.436 312.32 431.007 312.32ZM449.023 312.32C447.188 312.32 445.577 311.947 444.191 311.2C442.825 310.453 441.759 309.429 440.991 308.128C440.244 306.827 439.871 305.344 439.871 303.68C439.871 302.357 440.084 301.152 440.511 300.064C440.937 298.955 441.535 298.005 442.303 297.216C443.071 296.427 443.977 295.819 445.023 295.392C446.089 294.944 447.252 294.72 448.511 294.72C449.663 294.72 450.719 294.933 451.679 295.36C452.66 295.765 453.503 296.352 454.207 297.12C454.932 297.867 455.487 298.752 455.871 299.776C456.255 300.8 456.436 301.92 456.415 303.136L456.383 304.544H442.783L442.047 301.728H452.639L452.095 302.304V301.632C452.052 301.035 451.86 300.512 451.519 300.064C451.199 299.616 450.783 299.264 450.271 299.008C449.759 298.731 449.193 298.592 448.575 298.592C447.615 298.592 446.804 298.784 446.143 299.168C445.503 299.531 445.012 300.064 444.671 300.768C444.351 301.451 444.191 302.304 444.191 303.328C444.191 304.331 444.404 305.216 444.831 305.984C445.257 306.731 445.865 307.307 446.655 307.712C447.465 308.117 448.415 308.32 449.503 308.32C450.249 308.32 450.932 308.203 451.551 307.968C452.169 307.733 452.841 307.328 453.567 306.752L455.711 309.792C455.113 310.325 454.441 310.784 453.695 311.168C452.948 311.552 452.18 311.84 451.391 312.032C450.601 312.224 449.812 312.32 449.023 312.32Z" fill="white"/>
</svg>
